#N canvas 22 69 1251 839 10;
#X obj 165 -12396 float;
#X obj 374 -12422 + 1;
#X floatatom 201 -12360 5 0 0 0 - - -;
#X obj 184 -12474 metro;
#X obj 374 -12392 mod;
#X obj 196 -12450 s beat;
#X obj 74 -12569 inlet;
#X obj 224 -12023 outlet;
#X obj 250 -12542 r global_beat;
#X obj 184 -12503 bng 15 250 50 0 empty empty empty 17 7 0 10 -262144
-1 -1;
#X obj 436 -12420 inlet;
#X msg 492 -12534 set \$1;
#X msg 561 -12534 set \$2;
#X msg 640 -12531 set \$3;
#X obj 119 -12329 sel 0 1 2 3 4 5 6 7 8 9 10 11 12 13 14 15;
#X msg 63 -12173 0;
#X obj 63 -12197 r b0;
#X obj 492 -12502 s b0;
#X obj 562 -12501 s b1;
#X obj 640 -12499 s b2;
#X obj 49 -12281 s b0;
#X obj 86 -12281 s b1;
#X obj 120 -12282 s b2;
#X obj 63 -12146 s out;
#X obj 225 -12059 r out;
#X msg 104 -12172 2;
#X obj 104 -12145 s out;
#X msg 145 -12172 4;
#X obj 145 -12145 s out;
#X msg 186 -12171 5;
#X obj 186 -12144 s out;
#X msg 226 -12171 7;
#X obj 226 -12144 s out;
#X msg 267 -12170 9;
#X obj 267 -12143 s out;
#X msg 308 -12170 11;
#X obj 308 -12143 s out;
#X msg 349 -12169 12;
#X obj 349 -12142 s out;
#X obj 104 -12196 r b1;
#X obj 145 -12196 r b2;
#X obj 186 -12195 r b3;
#X obj 226 -12195 r b4;
#X obj 267 -12194 r b5;
#X obj 308 -12194 r b6;
#X obj 349 -12193 r b7;
#X floatatom 276 -12022 5 0 0 0 - - -;
#X obj 73 -12512 s seq_input;
#X obj 492 -12565 r seq_input;
#X obj 565 -12565 r seq_input;
#X obj 640 -12565 r seq_input;
#X obj 716 -12565 r seq_input;
#X obj 790 -12565 r seq_input;
#X obj 867 -12564 r seq_input;
#X obj 943 -12564 r seq_input;
#X obj 1027 -12565 r seq_input;
#X obj 716 -12499 s b3;
#X obj 790 -12499 s b4;
#X obj 867 -12498 s b5;
#X obj 943 -12498 s b6;
#X obj 1027 -12499 s b7;
#X msg 716 -12531 set \$4;
#X msg 790 -12531 set \$5;
#X msg 867 -12530 set \$6;
#X msg 943 -12530 set \$7;
#X msg 1027 -12531 set \$8;
#X obj 152 -12282 s b3;
#X obj 183 -12282 s b4;
#X obj 217 -12282 s b5;
#X obj 249 -12283 s b6;
#X obj 285 -12283 s b7;
#X connect 0 0 2 0;
#X connect 0 0 1 0;
#X connect 0 0 14 0;
#X connect 1 0 4 0;
#X connect 3 0 0 0;
#X connect 3 0 5 0;
#X connect 4 0 0 1;
#X connect 6 0 9 0;
#X connect 6 0 47 0;
#X connect 8 0 3 1;
#X connect 9 0 3 0;
#X connect 10 0 4 1;
#X connect 11 0 17 0;
#X connect 12 0 18 0;
#X connect 13 0 19 0;
#X connect 14 0 20 0;
#X connect 14 1 21 0;
#X connect 14 2 22 0;
#X connect 14 3 66 0;
#X connect 14 4 67 0;
#X connect 14 5 68 0;
#X connect 14 6 69 0;
#X connect 14 7 70 0;
#X connect 15 0 23 0;
#X connect 16 0 15 0;
#X connect 24 0 7 0;
#X connect 24 0 46 0;
#X connect 25 0 26 0;
#X connect 27 0 28 0;
#X connect 29 0 30 0;
#X connect 31 0 32 0;
#X connect 33 0 34 0;
#X connect 35 0 36 0;
#X connect 37 0 38 0;
#X connect 39 0 25 0;
#X connect 40 0 27 0;
#X connect 41 0 29 0;
#X connect 42 0 31 0;
#X connect 43 0 33 0;
#X connect 44 0 35 0;
#X connect 45 0 37 0;
#X connect 48 0 11 0;
#X connect 49 0 12 0;
#X connect 50 0 13 0;
#X connect 51 0 61 0;
#X connect 52 0 62 0;
#X connect 53 0 63 0;
#X connect 54 0 64 0;
#X connect 55 0 65 0;
#X connect 61 0 56 0;
#X connect 62 0 57 0;
#X connect 63 0 58 0;
#X connect 64 0 59 0;
#X connect 65 0 60 0;
