#N canvas 891 212 461 441 10;
#X obj 275 144 s global_beat;
#X msg 275 110 1000;
#X obj 113 178 + 66;
#X obj 112 218 mtof;
#X obj 222 41 loadbang;
#X msg 113 109 0 2 4 5 7 9 11 12;
#X obj 113 346 dac~;
#X obj 112 305 *~ 0.1;
#X obj 112 278 square~;
#X obj 222 78 t b b b;
#X obj 113 141 dynamic_sequencer2;
#X msg 241 109 8;
#X connect 1 0 0 0;
#X connect 2 0 3 0;
#X connect 3 0 8 0;
#X connect 4 0 9 0;
#X connect 5 0 10 0;
#X connect 7 0 6 0;
#X connect 7 0 6 1;
#X connect 8 0 7 0;
#X connect 9 0 5 0;
#X connect 9 1 11 0;
#X connect 9 2 1 0;
#X connect 10 0 2 0;
#X connect 11 0 10 1;
