#N canvas 196 81 849 623 10;
#X obj 146 237 osc~;
#X obj 88 263 +~;
#X floatatom 204 156 5 0 0 0 - - -;
#X obj 88 363 osc~;
#X obj 88 179 mtof;
#X obj 128 261 *~;
#X floatatom 200 245 5 0 0 0 - - -;
#X obj 266 232 osc~;
#X obj 248 256 *~;
#X floatatom 320 240 5 0 0 0 - - -;
#X obj 146 210 * 2;
#X obj 402 230 osc~;
#X obj 384 254 *~;
#X floatatom 456 238 5 0 0 0 - - -;
#X obj 266 205 * 2;
#X obj 402 203 * 2;
#X obj 194 299 +~;
#X obj 136 323 +~;
#X floatatom 294 139 5 0 0 0 - - -;
#X floatatom 427 139 5 0 0 0 - - -;
#X obj 296 50 * 2;
#X obj 353 51 * 2;
#X obj 316 76 * 4;
#X obj 525 223 osc~;
#X obj 507 247 *~;
#X floatatom 579 231 5 0 0 0 - - -;
#X obj 525 196 * 2;
#X obj 431 278 +~;
#X obj 88 425 output~;
#X obj 88 117 r lmidi;
#X text 90 -44 Tar emot en midisignal och konverterar det till en frekvens
\, samt tar emot en modulationsfaktor som den modulerar övertoner
med;
#X obj 317 18 r lp2;
#X connect 0 0 5 0;
#X connect 1 0 17 0;
#X connect 3 0 28 0;
#X connect 3 0 28 1;
#X connect 4 0 1 0;
#X connect 4 0 10 0;
#X connect 5 0 1 1;
#X connect 6 0 5 1;
#X connect 7 0 8 0;
#X connect 8 0 16 0;
#X connect 9 0 8 1;
#X connect 10 0 2 0;
#X connect 10 0 0 0;
#X connect 10 0 14 0;
#X connect 11 0 12 0;
#X connect 12 0 27 0;
#X connect 13 0 12 1;
#X connect 14 0 7 0;
#X connect 14 0 15 0;
#X connect 14 0 18 0;
#X connect 15 0 11 0;
#X connect 15 0 19 0;
#X connect 15 0 26 0;
#X connect 16 0 17 1;
#X connect 17 0 3 0;
#X connect 20 0 6 0;
#X connect 21 0 13 0;
#X connect 22 0 9 0;
#X connect 23 0 24 0;
#X connect 24 0 27 1;
#X connect 25 0 24 1;
#X connect 26 0 23 0;
#X connect 27 0 16 1;
#X connect 29 0 4 0;
#X connect 31 0 20 0;
#X connect 31 0 22 0;
#X connect 31 0 21 0;
#X connect 31 0 25 0;
