#N canvas 0 123 1151 761 10;
#X obj 58 66 bng 15 250 50 0 empty empty empty 17 7 0 10 -262144 -1
-1;
#X msg 28 74 0;
#N canvas 110 22 1422 908 lead 0;
#X obj 59 51 inlet tempo;
#X obj 144 47 inlet pitch;
#X obj 331 46 inlet rhythm;
#X floatatom 60 80 5 0 0 0 - - -;
#X msg 924 112 set \$1;
#X obj 329 114 s mrl;
#X obj 897 55 r mrl;
#X floatatom 166 96 5 0 0 0 - - -;
#X msg 219 76 69;
#X obj 899 174 s rl1;
#X obj 166 142 s pitch_lead;
#X obj 593 484 r pitch_lead;
#X obj 42 332 r rl1;
#X msg 91 132 0;
#X obj 897 90 t b a;
#X obj 59 172 select 1 2 3 4 5 6 7 8 9 10 11 12 13 14 15 16;
#X obj 981 55 r mrl;
#X obj 981 90 t b a;
#X obj 1174 96 t b a;
#X obj 1067 57 r mrl;
#X obj 1067 92 t b a;
#X obj 1174 61 r mrl;
#X msg 1094 114 set \$3;
#X msg 1201 118 set \$4;
#X obj 1174 166 s rl4;
#X obj 1052 178 s rl3;
#X msg 1008 112 set \$2;
#X obj 967 176 s rl2;
#X obj 58 267 f;
#X obj 128 335 f;
#X obj 131 240 f;
#X obj 72 242 r rl2;
#X obj 142 310 r rl3;
#X obj 145 215 r rl4;
#X obj 164 118 mtof;
#X obj 24 379 s lead_length;
#X obj 55 292 s lead_length;
#X obj 125 360 s lead_length;
#X obj 128 265 s lead_length;
#X obj 640 809 dac~;
#X obj 641 772 *~ 0.1;
#X obj 593 606 osc~;
#X obj 642 732 *~;
#X msg 911 140 1;
#X obj 423 35 r bang_rythm;
#X obj 235 40 r bang_pitch;
#X obj 28 354 f;
#X msg 978 137 1;
#X msg 1059 137 1;
#X msg 1170 134 0;
#X obj 613 14 r lp1;
#X obj 712 700 line~;
#X msg 685 654 1 5;
#X obj 730 471 r lead_length;
#X obj 688 586 t b b;
#X msg 729 655 0 50;
#X obj 727 623 delay 50;
#X obj 890 243 r mrl;
#X obj 890 278 t b a;
#X obj 974 243 r mrl;
#X obj 974 278 t b a;
#X obj 1167 284 t b a;
#X obj 1060 245 r mrl;
#X obj 1060 280 t b a;
#X obj 1167 249 r mrl;
#X msg 904 328 1;
#X msg 971 325 0;
#X msg 1052 325 0;
#X msg 1163 322 1;
#X msg 917 300 set \$5;
#X obj 892 362 s rl5;
#X msg 1001 300 set \$6;
#X obj 960 364 s rl6;
#X msg 1087 302 set \$7;
#X obj 1045 366 s rl7;
#X msg 1194 306 set \$8;
#X obj 1167 354 s rl8;
#X obj 272 293 f;
#X obj 376 348 f;
#X obj 379 253 f;
#X obj 238 405 s lead_length;
#X obj 269 318 s lead_length;
#X obj 373 373 s lead_length;
#X obj 376 278 s lead_length;
#X obj 242 380 f;
#X obj 256 358 r rl5;
#X obj 286 268 r rl6;
#X obj 390 323 r rl7;
#X obj 393 228 r rl8;
#X obj 680 533 select 1 0;
#X obj 765 537 print l:;
#X obj 883 419 r mrl;
#X obj 883 454 t b a;
#X obj 967 419 r mrl;
#X obj 967 454 t b a;
#X obj 1160 460 t b a;
#X obj 1053 421 r mrl;
#X obj 1053 456 t b a;
#X obj 1160 425 r mrl;
#X msg 897 504 1;
#X msg 964 501 0;
#X msg 1045 501 1;
#X msg 1156 498 0;
#X obj 876 607 r mrl;
#X obj 876 642 t b a;
#X obj 960 607 r mrl;
#X obj 960 642 t b a;
#X obj 1153 648 t b a;
#X obj 1046 609 r mrl;
#X obj 1046 644 t b a;
#X obj 1153 613 r mrl;
#X msg 890 692 0;
#X msg 957 689 1;
#X msg 1038 689 1;
#X msg 1149 686 0;
#X msg 910 476 set \$9;
#X obj 885 538 s rl9;
#X msg 994 476 set \$10;
#X obj 953 540 s rl10;
#X msg 1080 478 set \$11;
#X obj 1038 542 s rl11;
#X msg 1187 482 set \$12;
#X obj 1160 530 s rl12;
#X msg 903 664 set \$13;
#X obj 878 726 s rl13;
#X msg 987 664 set \$14;
#X obj 946 728 s rl14;
#X msg 1073 666 set \$15;
#X obj 1031 730 s rl15;
#X msg 1180 670 set \$16;
#X obj 1153 718 s rl16;
#X obj 54 514 f;
#X obj 124 582 f;
#X obj 127 487 f;
#X obj 20 626 s lead_length;
#X obj 51 539 s lead_length;
#X obj 121 607 s lead_length;
#X obj 124 512 s lead_length;
#X obj 24 601 f;
#X obj 268 540 f;
#X obj 372 595 f;
#X obj 375 500 f;
#X obj 234 652 s lead_length;
#X obj 265 565 s lead_length;
#X obj 369 620 s lead_length;
#X obj 372 525 s lead_length;
#X obj 238 627 f;
#X obj 38 579 r rl9;
#X obj 68 489 r rl10;
#X obj 138 557 r rl11;
#X obj 141 462 r rl12;
#X obj 252 605 r rl13;
#X obj 282 515 r rl14;
#X obj 386 570 r rl15;
#X obj 389 475 r rl16;
#X msg 372 82 1 1 1 0 1 0 0 1 1 0 1 0 0 1 1 0;
#X connect 0 0 3 0;
#X connect 1 0 7 0;
#X connect 2 0 5 0;
#X connect 3 0 15 0;
#X connect 4 0 43 0;
#X connect 6 0 14 0;
#X connect 7 0 34 0;
#X connect 8 0 7 0;
#X connect 11 0 41 0;
#X connect 12 0 46 1;
#X connect 13 0 15 0;
#X connect 14 0 43 0;
#X connect 14 1 4 0;
#X connect 15 0 46 0;
#X connect 15 1 28 0;
#X connect 15 2 29 0;
#X connect 15 3 30 0;
#X connect 15 4 84 0;
#X connect 15 5 77 0;
#X connect 15 6 78 0;
#X connect 15 7 79 0;
#X connect 15 8 138 0;
#X connect 15 9 131 0;
#X connect 15 10 132 0;
#X connect 15 11 133 0;
#X connect 15 12 146 0;
#X connect 15 13 139 0;
#X connect 15 14 140 0;
#X connect 15 15 141 0;
#X connect 16 0 17 0;
#X connect 17 0 47 0;
#X connect 17 1 26 0;
#X connect 18 0 49 0;
#X connect 18 1 23 0;
#X connect 19 0 20 0;
#X connect 20 0 48 0;
#X connect 20 1 22 0;
#X connect 21 0 18 0;
#X connect 22 0 48 0;
#X connect 23 0 49 0;
#X connect 26 0 47 0;
#X connect 28 0 36 0;
#X connect 29 0 37 0;
#X connect 30 0 38 0;
#X connect 31 0 28 1;
#X connect 32 0 29 1;
#X connect 33 0 30 1;
#X connect 34 0 10 0;
#X connect 40 0 39 0;
#X connect 40 0 39 1;
#X connect 41 0 42 0;
#X connect 42 0 40 0;
#X connect 43 0 9 0;
#X connect 44 0 155 0;
#X connect 45 0 8 0;
#X connect 46 0 35 0;
#X connect 47 0 27 0;
#X connect 48 0 25 0;
#X connect 49 0 24 0;
#X connect 51 0 42 1;
#X connect 52 0 51 0;
#X connect 53 0 89 0;
#X connect 53 0 90 0;
#X connect 54 0 52 0;
#X connect 54 1 56 0;
#X connect 55 0 51 0;
#X connect 56 0 55 0;
#X connect 57 0 58 0;
#X connect 58 0 65 0;
#X connect 58 1 69 0;
#X connect 59 0 60 0;
#X connect 60 0 66 0;
#X connect 60 1 71 0;
#X connect 61 0 68 0;
#X connect 61 1 75 0;
#X connect 62 0 63 0;
#X connect 63 0 67 0;
#X connect 63 1 73 0;
#X connect 64 0 61 0;
#X connect 65 0 70 0;
#X connect 66 0 72 0;
#X connect 67 0 74 0;
#X connect 68 0 76 0;
#X connect 69 0 65 0;
#X connect 71 0 66 0;
#X connect 73 0 67 0;
#X connect 75 0 68 0;
#X connect 77 0 81 0;
#X connect 78 0 82 0;
#X connect 79 0 83 0;
#X connect 84 0 80 0;
#X connect 85 0 84 1;
#X connect 86 0 77 1;
#X connect 87 0 78 1;
#X connect 88 0 79 1;
#X connect 89 0 54 0;
#X connect 91 0 92 0;
#X connect 92 0 99 0;
#X connect 92 1 115 0;
#X connect 93 0 94 0;
#X connect 94 0 100 0;
#X connect 94 1 117 0;
#X connect 95 0 102 0;
#X connect 95 1 121 0;
#X connect 96 0 97 0;
#X connect 97 0 101 0;
#X connect 97 1 119 0;
#X connect 98 0 95 0;
#X connect 99 0 116 0;
#X connect 100 0 118 0;
#X connect 101 0 120 0;
#X connect 102 0 122 0;
#X connect 103 0 104 0;
#X connect 104 0 111 0;
#X connect 104 1 123 0;
#X connect 105 0 106 0;
#X connect 106 0 112 0;
#X connect 106 1 125 0;
#X connect 107 0 114 0;
#X connect 107 1 129 0;
#X connect 108 0 109 0;
#X connect 109 0 113 0;
#X connect 109 1 127 0;
#X connect 110 0 107 0;
#X connect 111 0 124 0;
#X connect 112 0 126 0;
#X connect 113 0 128 0;
#X connect 114 0 130 0;
#X connect 115 0 99 0;
#X connect 117 0 100 0;
#X connect 119 0 101 0;
#X connect 121 0 102 0;
#X connect 123 0 111 0;
#X connect 125 0 112 0;
#X connect 127 0 113 0;
#X connect 129 0 114 0;
#X connect 131 0 135 0;
#X connect 132 0 136 0;
#X connect 133 0 137 0;
#X connect 138 0 134 0;
#X connect 139 0 143 0;
#X connect 140 0 144 0;
#X connect 141 0 145 0;
#X connect 146 0 142 0;
#X connect 147 0 138 1;
#X connect 148 0 131 1;
#X connect 149 0 132 1;
#X connect 150 0 133 1;
#X connect 151 0 146 1;
#X connect 152 0 139 1;
#X connect 153 0 140 1;
#X connect 154 0 141 1;
#X connect 155 0 5 0;
#X restore 222 300 pd lead;
#X obj 93 170 f 0;
#X obj 134 156 + 1;
#X obj 94 103 metro;
#X obj 158 104 s global_tempo;
#X obj 153 30 r bang_metro;
#X obj 744 14 loadbang;
#X obj 831 124 s bang_spigot;
#X obj 807 154 s bang_length;
#X obj 792 192 s bang_rythm;
#X obj 767 222 s bang_pitch;
#X obj 58 23 r bang_metro_on;
#X obj 746 253 t b b;
#X obj 772 289 s bang_metro;
#X obj 750 315 s bang_metro_on;
#X obj 241 262 r lmidi;
#X obj 202 372 r bmidi;
#N canvas 224 34 1422 908 bass 0;
#X obj 59 51 inlet tempo;
#X obj 153 29 inlet pitch;
#X obj 331 46 inlet rhythm;
#X floatatom 60 80 5 0 0 0 - - -;
#X msg 707 110 set \$1;
#X floatatom 166 96 5 0 0 0 - - -;
#X msg 91 132 0;
#X obj 680 88 t b a;
#X obj 67 176 select 1 2 3 4 5 6 7 8 9 10 11 12 13 14 15 16;
#X obj 764 88 t b a;
#X obj 957 94 t b a;
#X obj 850 90 t b a;
#X msg 877 112 set \$3;
#X msg 984 116 set \$4;
#X msg 791 110 set \$2;
#X obj 58 267 f;
#X obj 128 335 f;
#X obj 131 240 f;
#X obj 164 118 mtof;
#X obj 415 1069 dac~;
#X obj 416 1032 *~ 0.1;
#X obj 368 866 osc~;
#X obj 417 992 *~;
#X msg 694 138 1;
#X obj 423 35 r bang_rythm;
#X obj 235 40 r bang_pitch;
#X obj 28 354 f;
#X msg 761 135 0;
#X msg 842 135 1;
#X msg 953 132 0;
#X obj 487 960 line~;
#X obj 463 846 t b b;
#X obj 502 883 delay 50;
#X obj 673 276 t b a;
#X obj 757 276 t b a;
#X obj 950 282 t b a;
#X obj 843 278 t b a;
#X msg 687 326 1;
#X msg 754 323 0;
#X msg 835 323 1;
#X msg 946 320 0;
#X msg 700 298 set \$5;
#X msg 784 298 set \$6;
#X msg 870 300 set \$7;
#X msg 977 304 set \$8;
#X obj 272 293 f;
#X obj 376 348 f;
#X obj 379 253 f;
#X obj 242 380 f;
#X obj 455 793 select 1 0;
#X obj 680 53 r mrb;
#X obj 764 53 r mrb;
#X obj 850 55 r mrb;
#X obj 957 59 r mrb;
#X obj 673 241 r mrb;
#X obj 757 241 r mrb;
#X obj 843 243 r mrb;
#X obj 950 247 r mrb;
#X obj 682 172 s rb1;
#X obj 750 174 s rb2;
#X obj 835 176 s rb3;
#X obj 957 164 s rb4;
#X obj 675 360 s rb5;
#X obj 743 362 s rb6;
#X obj 828 364 s rb7;
#X obj 950 352 s rb8;
#X obj 505 731 r bass_length;
#X obj 368 744 r pitch_bass;
#X obj 55 292 s bass_length;
#X obj 24 379 s bass_length;
#X obj 128 265 s bass_length;
#X obj 125 360 s bass_length;
#X obj 238 405 s bass_length;
#X obj 269 318 s bass_length;
#X obj 376 278 s bass_length;
#X obj 373 373 s bass_length;
#X obj 72 242 r rb2;
#X obj 42 332 r rb1;
#X obj 143 310 r rb3;
#X obj 145 215 r rb4;
#X obj 256 358 r rb5;
#X obj 286 268 r rb6;
#X obj 390 323 r rb7;
#X obj 393 228 r rb8;
#X obj 329 114 s mrb;
#X obj 166 142 s pitch_bass;
#X obj 155 67 - 24;
#X msg 209 69 45;
#X msg 504 915 0 200;
#X obj 662 433 r mrb;
#X obj 662 468 t b a;
#X obj 746 433 r mrb;
#X obj 746 468 t b a;
#X obj 939 474 t b a;
#X obj 832 435 r mrb;
#X obj 832 470 t b a;
#X obj 939 439 r mrb;
#X msg 676 518 1;
#X msg 743 515 0;
#X msg 824 515 1;
#X msg 935 512 0;
#X obj 655 621 r mrb;
#X obj 655 656 t b a;
#X obj 739 621 r mrb;
#X obj 739 656 t b a;
#X obj 932 662 t b a;
#X obj 825 623 r mrb;
#X obj 825 658 t b a;
#X obj 932 627 r mrb;
#X msg 669 706 1;
#X msg 736 703 1;
#X msg 817 703 1;
#X msg 928 700 0;
#X msg 689 490 set \$9;
#X obj 664 552 s rb9;
#X msg 773 490 set \$10;
#X obj 732 554 s rb10;
#X msg 859 492 set \$11;
#X obj 817 556 s rb11;
#X msg 966 496 set \$12;
#X obj 939 544 s rb12;
#X msg 682 678 set \$13;
#X obj 657 740 s rb13;
#X msg 766 678 set \$14;
#X obj 725 742 s rb14;
#X msg 852 680 set \$15;
#X obj 810 744 s rb15;
#X msg 959 684 set \$16;
#X obj 932 732 s rb16;
#X obj 37 509 f;
#X obj 107 577 f;
#X obj 110 482 f;
#X obj 3 621 s bass_length;
#X obj 34 534 s bass_length;
#X obj 104 602 s bass_length;
#X obj 107 507 s bass_length;
#X obj 7 596 f;
#X obj 251 535 f;
#X obj 355 590 f;
#X obj 358 495 f;
#X obj 217 647 s bass_length;
#X obj 248 560 s bass_length;
#X obj 352 615 s bass_length;
#X obj 355 520 s bass_length;
#X obj 221 622 f;
#X obj 21 574 r rb9;
#X obj 51 484 r rb10;
#X obj 121 552 r rb11;
#X obj 124 457 r rb12;
#X obj 235 600 r rb13;
#X obj 265 510 r rb14;
#X obj 369 565 r rb15;
#X obj 372 470 r rb16;
#X msg 372 82 1 0 1 0 1 0 1 0 1 0 1 0 1 1 1 0;
#X msg 460 914 0.8 10;
#X connect 0 0 3 0;
#X connect 1 0 86 0;
#X connect 2 0 84 0;
#X connect 3 0 8 0;
#X connect 4 0 23 0;
#X connect 5 0 18 0;
#X connect 6 0 8 0;
#X connect 7 0 23 0;
#X connect 7 1 4 0;
#X connect 8 0 26 0;
#X connect 8 1 15 0;
#X connect 8 2 16 0;
#X connect 8 3 17 0;
#X connect 8 4 48 0;
#X connect 8 5 45 0;
#X connect 8 6 46 0;
#X connect 8 7 47 0;
#X connect 8 8 136 0;
#X connect 8 9 129 0;
#X connect 8 10 130 0;
#X connect 8 11 131 0;
#X connect 8 12 144 0;
#X connect 8 13 137 0;
#X connect 8 14 138 0;
#X connect 8 15 139 0;
#X connect 9 0 27 0;
#X connect 9 1 14 0;
#X connect 10 0 29 0;
#X connect 10 1 13 0;
#X connect 11 0 28 0;
#X connect 11 1 12 0;
#X connect 12 0 28 0;
#X connect 13 0 29 0;
#X connect 14 0 27 0;
#X connect 15 0 68 0;
#X connect 16 0 71 0;
#X connect 17 0 70 0;
#X connect 18 0 85 0;
#X connect 20 0 19 0;
#X connect 20 0 19 1;
#X connect 21 0 22 0;
#X connect 22 0 20 0;
#X connect 23 0 58 0;
#X connect 24 0 153 0;
#X connect 25 0 87 0;
#X connect 26 0 69 0;
#X connect 27 0 59 0;
#X connect 28 0 60 0;
#X connect 29 0 61 0;
#X connect 30 0 22 1;
#X connect 31 0 154 0;
#X connect 31 1 32 0;
#X connect 32 0 88 0;
#X connect 33 0 37 0;
#X connect 33 1 41 0;
#X connect 34 0 38 0;
#X connect 34 1 42 0;
#X connect 35 0 40 0;
#X connect 35 1 44 0;
#X connect 36 0 39 0;
#X connect 36 1 43 0;
#X connect 37 0 62 0;
#X connect 38 0 63 0;
#X connect 39 0 64 0;
#X connect 40 0 65 0;
#X connect 41 0 37 0;
#X connect 42 0 38 0;
#X connect 43 0 39 0;
#X connect 44 0 40 0;
#X connect 45 0 73 0;
#X connect 46 0 75 0;
#X connect 47 0 74 0;
#X connect 48 0 72 0;
#X connect 49 0 31 0;
#X connect 50 0 7 0;
#X connect 51 0 9 0;
#X connect 52 0 11 0;
#X connect 53 0 10 0;
#X connect 54 0 33 0;
#X connect 55 0 34 0;
#X connect 56 0 36 0;
#X connect 57 0 35 0;
#X connect 66 0 49 0;
#X connect 67 0 21 0;
#X connect 76 0 15 1;
#X connect 77 0 26 1;
#X connect 78 0 16 1;
#X connect 79 0 17 1;
#X connect 80 0 48 1;
#X connect 81 0 45 1;
#X connect 82 0 46 1;
#X connect 83 0 47 1;
#X connect 86 0 5 0;
#X connect 87 0 5 0;
#X connect 88 0 30 0;
#X connect 89 0 90 0;
#X connect 90 0 97 0;
#X connect 90 1 113 0;
#X connect 91 0 92 0;
#X connect 92 0 98 0;
#X connect 92 1 115 0;
#X connect 93 0 100 0;
#X connect 93 1 119 0;
#X connect 94 0 95 0;
#X connect 95 0 99 0;
#X connect 95 1 117 0;
#X connect 96 0 93 0;
#X connect 97 0 114 0;
#X connect 98 0 116 0;
#X connect 99 0 118 0;
#X connect 100 0 120 0;
#X connect 101 0 102 0;
#X connect 102 0 109 0;
#X connect 102 1 121 0;
#X connect 103 0 104 0;
#X connect 104 0 110 0;
#X connect 104 1 123 0;
#X connect 105 0 112 0;
#X connect 105 1 127 0;
#X connect 106 0 107 0;
#X connect 107 0 111 0;
#X connect 107 1 125 0;
#X connect 108 0 105 0;
#X connect 109 0 122 0;
#X connect 110 0 124 0;
#X connect 111 0 126 0;
#X connect 112 0 128 0;
#X connect 113 0 97 0;
#X connect 115 0 98 0;
#X connect 117 0 99 0;
#X connect 119 0 100 0;
#X connect 121 0 109 0;
#X connect 123 0 110 0;
#X connect 125 0 111 0;
#X connect 127 0 112 0;
#X connect 129 0 133 0;
#X connect 130 0 134 0;
#X connect 131 0 135 0;
#X connect 136 0 132 0;
#X connect 137 0 141 0;
#X connect 138 0 142 0;
#X connect 139 0 143 0;
#X connect 144 0 140 0;
#X connect 145 0 136 1;
#X connect 146 0 129 1;
#X connect 147 0 130 1;
#X connect 148 0 131 1;
#X connect 149 0 144 1;
#X connect 150 0 137 1;
#X connect 151 0 138 1;
#X connect 152 0 139 1;
#X connect 153 0 84 0;
#X connect 154 0 30 0;
#X restore 183 406 pd bass;
#X obj 134 187 mod 16;
#N canvas 1912 48 1280 941 drums 1;
#X obj 269 59 inlet tempo;
#X floatatom 270 88 5 0 0 0 - - -;
#X obj 226 299 select 1 2 3 4;
#X obj 311 327 select 5 6 7 8;
#X obj 394 354 select 9 10 11 12;
#X obj 494 382 select 13 14 15 16;
#X obj 328 444 t b;
#N canvas 835 238 858 665 sampleplayer 1;
#X obj 128 87 soundfiler;
#X obj 155 168 / 44100;
#X obj 155 198 * 1000;
#X obj 128 114 t b f;
#X obj 128 -38 pack s \$0;
#X obj 458 277 dac~;
#X obj 458 101 line~;
#X obj 429 -52 t b b;
#X msg 509 73 0;
#X obj 429 74 pack f f;
#X obj 429 -79 r \$0-TICK;
#X obj 514 -80 r \$0-SAMPCOUNT;
#X obj 429 50 f;
#X obj 215 168 s \$0-SAMPCOUNT;
#X obj 35 189 s \$0-TICK;
#X obj 514 -16 / 44100;
#X obj 514 14 * 1000;
#X obj 161 311 print TICK;
#X obj 311 168 print LOADED;
#X obj 187 251 *;
#X obj 210 197 r \$0-DURRATIO;
#X obj 309 32 s \$0-DURRATIO;
#X obj 570 -16 r \$0-DURRATIO;
#X obj 541 44 *;
#X msg 309 4 1;
#X obj 263 311 print TEMPO;
#X obj 210 219 t b f;
#X obj 570 13 t b f;
#X obj 92 275 metro;
#X obj 128 -76 inlet loadfile;
#X msg 128 59 read -resize \$1 SAMPLE;
#X obj 90 379 table SAMPLE 100;
#X obj 459 130 tabread~ SAMPLE;
#X obj 458 204 *~ 0.1;
#X obj 306 -42 r bang_drums;
#X connect 0 0 3 0;
#X connect 1 0 2 0;
#X connect 2 0 19 0;
#X connect 3 0 28 0;
#X connect 3 0 14 0;
#X connect 3 1 1 0;
#X connect 3 1 13 0;
#X connect 4 0 30 0;
#X connect 6 0 32 0;
#X connect 7 0 12 0;
#X connect 7 1 8 0;
#X connect 8 0 6 0;
#X connect 9 0 6 0;
#X connect 10 0 7 0;
#X connect 11 0 15 0;
#X connect 11 0 12 1;
#X connect 12 0 9 0;
#X connect 15 0 16 0;
#X connect 16 0 23 0;
#X connect 19 0 28 1;
#X connect 20 0 26 0;
#X connect 22 0 27 0;
#X connect 23 0 9 1;
#X connect 24 0 21 0;
#X connect 26 0 19 0;
#X connect 26 1 19 1;
#X connect 27 0 23 0;
#X connect 27 1 23 1;
#X connect 29 0 4 0;
#X connect 30 0 0 0;
#X connect 32 0 33 0;
#X connect 33 0 5 0;
#X connect 33 0 5 1;
#X connect 34 0 24 0;
#X restore 327 538 pd sampleplayer;
#X msg 329 493 pd/samples/kick.wav;
#X connect 0 0 1 0;
#X connect 1 0 2 0;
#X connect 2 0 6 0;
#X connect 2 4 3 0;
#X connect 3 0 6 0;
#X connect 3 4 4 0;
#X connect 4 0 6 0;
#X connect 4 4 5 0;
#X connect 5 0 6 0;
#X connect 6 0 8 0;
#X connect 8 0 7 0;
#X restore 89 406 pd drums;
#X msg 129 76 125;
#X obj 748 81 t b b b b b b;
#X obj 901 98 s bang_drums;
#X connect 0 0 5 0;
#X connect 1 0 5 0;
#X connect 3 0 20 0;
#X connect 3 0 21 0;
#X connect 3 0 19 0;
#X connect 3 0 2 0;
#X connect 4 0 3 1;
#X connect 5 0 3 0;
#X connect 7 0 22 0;
#X connect 8 0 23 0;
#X connect 13 0 5 0;
#X connect 14 0 16 0;
#X connect 14 1 15 0;
#X connect 17 0 2 1;
#X connect 18 0 19 1;
#X connect 20 0 4 0;
#X connect 22 0 5 1;
#X connect 22 0 6 0;
#X connect 23 0 14 0;
#X connect 23 1 12 0;
#X connect 23 2 11 0;
#X connect 23 3 10 0;
#X connect 23 4 9 0;
#X connect 23 5 24 0;
