#N canvas 52 265 700 415 10;
#X obj 58 66 bng 15 250 50 0 empty empty empty 17 7 0 10 -262144 -1
-1;
#X msg 28 74 0;
#N canvas 208 61 1280 702 lead 1;
#X obj 59 51 inlet tempo;
#X obj 684 45 inlet l3;
#X obj 144 47 inlet pitch;
#X obj 331 46 inlet rhythm;
#X floatatom 60 106 5 0 0 0 - - -;
#X floatatom 464 245 5 0 0 0 - - -;
#X msg 491 222 set \$1;
#X obj 330 103 s mrl;
#X obj 464 165 r mrl;
#X floatatom 878 246 5 0 0 0 - - -;
#X obj 878 185 r mrl;
#X floatatom 931 242 5 0 0 0 - - -;
#X obj 931 181 r mrl;
#X floatatom 985 242 5 0 0 0 - - -;
#X obj 985 181 r mrl;
#X floatatom 1038 238 5 0 0 0 - - -;
#X obj 1038 177 r mrl;
#X floatatom 558 402 5 0 0 0 - - -;
#X obj 558 341 r mrl;
#X floatatom 611 398 5 0 0 0 - - -;
#X obj 611 337 r mrl;
#X floatatom 665 398 5 0 0 0 - - -;
#X obj 665 337 r mrl;
#X floatatom 716 395 5 0 0 0 - - -;
#X obj 718 333 r mrl;
#X floatatom 766 402 5 0 0 0 - - -;
#X obj 766 341 r mrl;
#X floatatom 819 398 5 0 0 0 - - -;
#X obj 819 337 r mrl;
#X floatatom 873 398 5 0 0 0 - - -;
#X obj 873 337 r mrl;
#X floatatom 926 394 5 0 0 0 - - -;
#X obj 926 333 r mrl;
#X msg 878 212 set \$5;
#X msg 931 208 set \$6;
#X msg 985 208 set \$7;
#X msg 1038 204 set \$8;
#X msg 558 368 set \$9;
#X msg 611 364 set \$10;
#X msg 665 364 set \$11;
#X msg 718 360 set \$12;
#X msg 766 368 set \$13;
#X msg 819 364 set \$14;
#X msg 873 364 set \$15;
#X msg 926 360 set \$16;
#X floatatom 166 96 5 0 0 0 - - -;
#X msg 219 76 69;
#X obj 464 270 s rl1;
#X obj 881 279 s rl5;
#X obj 933 280 s rl6;
#X obj 989 282 s rl7;
#X obj 1041 283 s rl8;
#X obj 560 430 s rl9;
#X obj 612 431 s rl10;
#X obj 668 433 s rl11;
#X obj 720 434 s rl12;
#X obj 771 436 s rl13;
#X obj 823 437 s rl14;
#X obj 879 439 s rl15;
#X obj 931 440 s rl16;
#X obj 166 142 s pitch_lead;
#X obj 162 433 r pitch_lead;
#X obj 23 297 f;
#X obj 37 272 r rl1;
#X floatatom 282 414 5 0 0 0 - - -;
#X msg 91 132 0;
#X obj 28 254 bng 15 250 50 0 empty empty empty 17 7 0 10 -262144 -1
-1;
#X obj 464 200 t b a;
#X obj 59 172 select 1 2 3 4 5 6 7 8 9 10 11 12 13 14 15 16;
#X floatatom 548 245 5 0 0 0 - - -;
#X obj 548 165 r mrl;
#X obj 548 200 t b a;
#X floatatom 741 251 5 0 0 0 - - -;
#X obj 741 206 t b a;
#X floatatom 634 247 5 0 0 0 - - -;
#X obj 634 167 r mrl;
#X obj 634 202 t b a;
#X obj 741 171 r mrl;
#X msg 661 224 set \$3;
#X msg 768 228 set \$4;
#X obj 741 276 s rl4;
#X obj 634 272 s rl3;
#X msg 575 222 set \$2;
#X obj 548 270 s rl2;
#X obj 85 259 f;
#X obj 90 216 bng 15 250 50 0 empty empty empty 17 7 0 10 -262144 -1
-1;
#X obj 169 297 f;
#X obj 174 254 bng 15 250 50 0 empty empty empty 17 7 0 10 -262144
-1 -1;
#X obj 244 273 f;
#X obj 249 230 bng 15 250 50 0 empty empty empty 17 7 0 10 -262144
-1 -1;
#X obj 99 234 r rl2;
#X obj 183 272 r rl3;
#X obj 258 248 r rl4;
#X obj 164 118 mtof;
#X obj 258 389 r lead_length;
#X obj 20 322 s lead_length;
#X obj 82 284 s lead_length;
#X obj 166 322 s lead_length;
#X obj 241 298 s lead_length;
#X obj 269 438 *;
#X obj 319 423 r global_tempo;
#X floatatom 303 460 5 0 0 0 - - -;
#X msg 367 71 1 1 1 1 1 0 1 0 1 0 1 0 1 0 1 0;
#X obj 493 386 vsl 15 128 0 1 0 0 empty empty empty 0 -9 0 10 -262144
-1 -1 0 1;
#X obj 681 76 s lead_note_length;
#X obj 365 478 r lead_note_length;
#X obj 322 524 SyntoneLead;
#X obj 346 610 dac~;
#X obj 235 40 loadbang;
#X obj 423 35 loadbang;
#X obj 301 566 *~ 0.1;
#X obj 372 564 *~ 0.1;
#X connect 0 0 4 0;
#X connect 1 0 104 0;
#X connect 2 0 45 0;
#X connect 3 0 7 0;
#X connect 4 0 68 0;
#X connect 5 0 47 0;
#X connect 6 0 5 0;
#X connect 8 0 67 0;
#X connect 9 0 48 0;
#X connect 10 0 33 0;
#X connect 11 0 49 0;
#X connect 12 0 34 0;
#X connect 13 0 50 0;
#X connect 14 0 35 0;
#X connect 15 0 51 0;
#X connect 16 0 36 0;
#X connect 17 0 52 0;
#X connect 18 0 37 0;
#X connect 19 0 53 0;
#X connect 20 0 38 0;
#X connect 21 0 54 0;
#X connect 22 0 39 0;
#X connect 23 0 55 0;
#X connect 24 0 40 0;
#X connect 25 0 56 0;
#X connect 26 0 41 0;
#X connect 27 0 57 0;
#X connect 28 0 42 0;
#X connect 29 0 58 0;
#X connect 30 0 43 0;
#X connect 31 0 59 0;
#X connect 32 0 44 0;
#X connect 33 0 9 0;
#X connect 34 0 11 0;
#X connect 35 0 13 0;
#X connect 36 0 15 0;
#X connect 37 0 17 0;
#X connect 38 0 19 0;
#X connect 39 0 21 0;
#X connect 40 0 23 0;
#X connect 41 0 25 0;
#X connect 42 0 27 0;
#X connect 43 0 29 0;
#X connect 44 0 31 0;
#X connect 45 0 93 0;
#X connect 46 0 45 0;
#X connect 61 0 106 0;
#X connect 62 0 95 0;
#X connect 63 0 62 1;
#X connect 65 0 68 0;
#X connect 66 0 62 0;
#X connect 67 0 5 0;
#X connect 67 1 6 0;
#X connect 68 0 66 0;
#X connect 68 1 85 0;
#X connect 68 2 87 0;
#X connect 68 3 89 0;
#X connect 69 0 83 0;
#X connect 70 0 71 0;
#X connect 71 0 69 0;
#X connect 71 1 82 0;
#X connect 72 0 80 0;
#X connect 73 0 72 0;
#X connect 73 1 79 0;
#X connect 74 0 81 0;
#X connect 75 0 76 0;
#X connect 76 0 74 0;
#X connect 76 1 78 0;
#X connect 77 0 73 0;
#X connect 78 0 74 0;
#X connect 79 0 72 0;
#X connect 82 0 69 0;
#X connect 84 0 96 0;
#X connect 85 0 84 0;
#X connect 86 0 97 0;
#X connect 87 0 86 0;
#X connect 88 0 98 0;
#X connect 89 0 88 0;
#X connect 90 0 84 1;
#X connect 91 0 86 1;
#X connect 92 0 88 1;
#X connect 93 0 60 0;
#X connect 94 0 64 0;
#X connect 94 0 99 0;
#X connect 99 0 101 0;
#X connect 99 0 106 1;
#X connect 100 0 99 1;
#X connect 102 0 7 0;
#X connect 103 0 106 2;
#X connect 105 0 106 2;
#X connect 106 0 110 0;
#X connect 106 1 111 0;
#X connect 108 0 46 0;
#X connect 109 0 102 0;
#X connect 110 0 107 0;
#X connect 111 0 107 1;
#X restore 203 273 pd lead;
#X obj 93 170 f 0;
#X obj 134 156 + 1;
#X obj 134 187 mod 4;
#X obj 185 155 hsl 128 15 0 127 0 0 empty empty empty -2 -8 0 10 -262144
-1 -1 0 1;
#X obj 94 103 metro;
#X obj 158 104 s global_tempo;
#X msg 129 76 125;
#X obj 249 198 r lp1;
#X obj 107 28 loadbang;
#X connect 0 0 7 0;
#X connect 1 0 7 0;
#X connect 3 0 2 0;
#X connect 3 0 5 0;
#X connect 4 0 3 1;
#X connect 5 0 4 0;
#X connect 6 0 2 1;
#X connect 7 0 3 0;
#X connect 9 0 7 1;
#X connect 9 0 8 0;
#X connect 10 0 2 3;
#X connect 11 0 7 0;
#X connect 11 0 9 0;
