#N canvas 52 265 700 415 10;
#X obj 58 66 bng 15 250 50 0 empty empty empty 17 7 0 10 -262144 -1
-1;
#X msg 28 74 0;
#N canvas 960 0 942 960 lead 1;
#X obj 59 51 inlet tempo;
#X obj 144 47 inlet pitch;
#X obj 331 46 inlet rhythm;
#X floatatom 60 80 5 0 0 0 - - -;
#X msg 491 222 set \$1;
#X obj 329 114 s mrl;
#X obj 464 165 r mrl;
#X floatatom 166 96 5 0 0 0 - - -;
#X msg 219 76 69;
#X obj 466 284 s rl1;
#X obj 166 142 s pitch_lead;
#X obj 162 433 r pitch_lead;
#X obj 42 332 r rl1;
#X floatatom 282 414 5 0 0 0 - - -;
#X msg 91 132 0;
#X obj 464 200 t b a;
#X obj 59 172 select 1 2 3 4 5 6 7 8 9 10 11 12 13 14 15 16;
#X obj 548 165 r mrl;
#X obj 548 200 t b a;
#X obj 741 206 t b a;
#X obj 634 167 r mrl;
#X obj 634 202 t b a;
#X obj 741 171 r mrl;
#X msg 661 224 set \$3;
#X msg 768 228 set \$4;
#X obj 741 276 s rl4;
#X obj 619 288 s rl3;
#X msg 575 222 set \$2;
#X obj 534 286 s rl2;
#X obj 58 267 f;
#X obj 128 335 f;
#X obj 164 253 f;
#X obj 72 242 r rl2;
#X obj 142 310 r rl3;
#X obj 178 228 r rl4;
#X obj 164 118 mtof;
#X obj 258 389 r lead_length;
#X obj 24 379 s lead_length;
#X obj 55 292 s lead_length;
#X obj 125 360 s lead_length;
#X obj 161 278 s lead_length;
#X obj 269 438 *;
#X obj 319 423 r global_tempo;
#X floatatom 303 460 5 0 0 0 - - -;
#X msg 372 82 1 1 1 1 1 0 1 0 1 0 1 0 1 0 1 0;
#X obj 493 386 vsl 15 128 0 1 0 0 empty empty empty 0 -9 0 10 -262144
-1 -1 0 1;
#X obj 661 110 s lead_note_length;
#X obj 365 478 r lead_note_length;
#X obj 338 904 dac~;
#X obj 293 860 *~ 0.1;
#X obj 364 858 *~ 0.1;
#X msg 420 444 0.7;
#X obj 12 184 mtof;
#X obj 11 154 + 69;
#X obj 163 632 osc~;
#X obj 310 800 *~;
#X msg 649 801 1;
#X msg 679 821 0;
#X obj 649 777 bng 15 250 50 0 empty empty empty 17 7 0 10 -262144
-1 -1;
#X obj 679 797 bng 15 250 50 0 empty empty empty 17 7 0 10 -262144
-1 -1;
#X obj 678 774 delay;
#X msg 720 533 0;
#X obj 670 511 spigot;
#X obj 756 679 delay;
#X obj 669 558 t a b b a;
#X msg 761 535 1;
#X obj 652 632 t b b a;
#X obj 713 719 *;
#X obj 5 215 osc~;
#X obj 9 117 t a;
#X msg 478 250 1;
#X obj 423 35 r bang_rythm;
#X obj 235 40 r bang_pitch;
#X obj 789 453 r bang_spigot;
#X obj 404 380 r bang_length;
#X obj 28 354 f;
#X obj 10 437 print A;
#X obj 49 413 print B;
#X obj 77 444 print C;
#X obj 113 414 print D;
#X msg 545 247 1;
#X msg 626 247 1;
#X msg 737 244 1;
#X obj 747 594 * 0.9;
#X obj 654 68 / 127;
#X obj 613 14 r lp1;
#X connect 0 0 3 0;
#X connect 1 0 7 0;
#X connect 2 0 5 0;
#X connect 3 0 16 0;
#X connect 3 0 69 0;
#X connect 4 0 70 0;
#X connect 6 0 15 0;
#X connect 7 0 35 0;
#X connect 8 0 7 0;
#X connect 11 0 54 0;
#X connect 12 0 75 1;
#X connect 14 0 16 0;
#X connect 15 0 70 0;
#X connect 15 1 4 0;
#X connect 16 0 75 0;
#X connect 16 1 29 0;
#X connect 16 2 30 0;
#X connect 16 3 31 0;
#X connect 17 0 18 0;
#X connect 18 0 80 0;
#X connect 18 1 27 0;
#X connect 19 0 82 0;
#X connect 19 1 24 0;
#X connect 20 0 21 0;
#X connect 21 0 81 0;
#X connect 21 1 23 0;
#X connect 22 0 19 0;
#X connect 23 0 81 0;
#X connect 24 0 82 0;
#X connect 27 0 80 0;
#X connect 29 0 38 0;
#X connect 29 0 77 0;
#X connect 30 0 39 0;
#X connect 30 0 78 0;
#X connect 31 0 40 0;
#X connect 31 0 79 0;
#X connect 32 0 29 1;
#X connect 33 0 30 1;
#X connect 34 0 31 1;
#X connect 35 0 10 0;
#X connect 36 0 13 0;
#X connect 36 0 41 0;
#X connect 41 0 43 0;
#X connect 41 0 62 0;
#X connect 42 0 41 1;
#X connect 44 0 5 0;
#X connect 45 0 67 1;
#X connect 47 0 67 1;
#X connect 49 0 48 0;
#X connect 50 0 48 1;
#X connect 51 0 67 1;
#X connect 52 0 68 0;
#X connect 53 0 52 0;
#X connect 54 0 55 0;
#X connect 55 0 49 0;
#X connect 55 0 50 0;
#X connect 56 0 55 1;
#X connect 57 0 55 1;
#X connect 58 0 56 0;
#X connect 59 0 57 0;
#X connect 60 0 59 0;
#X connect 61 0 62 1;
#X connect 62 0 64 0;
#X connect 63 0 65 0;
#X connect 64 0 66 0;
#X connect 64 1 61 0;
#X connect 64 2 63 0;
#X connect 64 3 83 0;
#X connect 65 0 62 1;
#X connect 66 0 58 0;
#X connect 66 1 60 0;
#X connect 66 2 67 0;
#X connect 67 0 60 1;
#X connect 69 0 53 0;
#X connect 70 0 9 0;
#X connect 71 0 44 0;
#X connect 72 0 8 0;
#X connect 73 0 65 0;
#X connect 74 0 51 0;
#X connect 75 0 37 0;
#X connect 75 0 76 0;
#X connect 80 0 28 0;
#X connect 81 0 26 0;
#X connect 82 0 25 0;
#X connect 83 0 63 1;
#X connect 84 0 46 0;
#X connect 85 0 84 0;
#X restore 203 273 pd lead;
#X obj 93 170 f 0;
#X obj 134 156 + 1;
#X obj 134 187 mod 4;
#X obj 185 155 hsl 128 15 0 127 0 0 empty empty empty -2 -8 0 10 -262144
-1 -1 0 1;
#X obj 94 103 metro;
#X obj 158 104 s global_tempo;
#X msg 129 76 500;
#X obj 153 30 r bang_metro;
#X obj 395 38 loadbang;
#X obj 482 148 s bang_spigot;
#X obj 458 178 s bang_length;
#X obj 443 216 s bang_rythm;
#X obj 418 246 s bang_pitch;
#X obj 58 23 r bang_metro_on;
#X obj 399 105 t b b b b b;
#X obj 397 277 t b b;
#X obj 423 313 s bang_metro;
#X obj 401 339 s bang_metro_on;
#X connect 0 0 7 0;
#X connect 1 0 7 0;
#X connect 3 0 2 0;
#X connect 3 0 5 0;
#X connect 4 0 3 1;
#X connect 5 0 4 0;
#X connect 6 0 2 1;
#X connect 7 0 3 0;
#X connect 9 0 7 1;
#X connect 9 0 8 0;
#X connect 10 0 9 0;
#X connect 11 0 17 0;
#X connect 16 0 7 0;
#X connect 17 0 18 0;
#X connect 17 1 15 0;
#X connect 17 2 14 0;
#X connect 17 3 13 0;
#X connect 17 4 12 0;
#X connect 18 0 20 0;
#X connect 18 1 19 0;
