#N canvas 0 22 613 505 10;
#X obj 59 49 inlet pitch;
#X obj 357 71 inlet cool_effect_1;
#X obj 140 50 inlet length;
#X obj 64 445 outlet~ left;
#X obj 155 444 outlet~ right;
#X obj 61 229 osc~;
#X obj 105 414 *~;
#X msg 119 378 1;
#X msg 149 398 0;
#X obj 119 354 bng 15 250 50 0 empty empty empty 17 7 0 10 -262144
-1 -1;
#X obj 149 374 bng 15 250 50 0 empty empty empty 17 7 0 10 -262144
-1 -1;
#X obj 148 351 delay;
#X msg 190 110 0;
#X obj 140 88 spigot;
#X obj 199 201 delay;
#X obj 139 135 t a b b a;
#X msg 231 112 1;
#X obj 234 89 loadbang;
#X obj 122 209 t b b a;
#X obj 183 296 *;
#X connect 0 0 5 0;
#X connect 1 0 19 1;
#X connect 2 0 13 0;
#X connect 5 0 6 0;
#X connect 6 0 3 0;
#X connect 6 0 4 0;
#X connect 7 0 6 1;
#X connect 8 0 6 1;
#X connect 9 0 7 0;
#X connect 10 0 8 0;
#X connect 11 0 10 0;
#X connect 12 0 13 1;
#X connect 13 0 15 0;
#X connect 14 0 16 0;
#X connect 15 0 18 0;
#X connect 15 1 12 0;
#X connect 15 2 14 0;
#X connect 15 3 14 1;
#X connect 16 0 13 1;
#X connect 17 0 16 0;
#X connect 18 0 9 0;
#X connect 18 1 11 0;
#X connect 18 2 19 0;
#X connect 19 0 11 1;
