#N canvas 0 0 1916 978 10;
#X obj 343 381 + 1;
#X obj 88 86 loadbang;
#X obj 88 206 s bang_metro_on;
#X obj 432 540 r lmidi;
#X obj 586 542 r bmidi;
#X obj 343 412 mod 16;
#N canvas 0 0 1916 997 drums 0;
#X obj 460 70 inlet tempo;
#X floatatom 460 99 5 0 0 0 - - -;
#X obj 460 137 select 1 2 3 4;
#X obj 545 165 select 5 6 7 8;
#X obj 628 192 select 9 10 11 12;
#X obj 728 220 select 13 14 15 16;
#X obj 460 274 t b;
#N canvas 595 252 858 665 sampleplayer 0;
#X obj 128 103 soundfiler;
#X obj 128 33 pack s \$0;
#X obj 429 104 line~;
#X obj 429 -52 t b b;
#X msg 509 73 0;
#X obj 429 74 pack f f;
#X obj 429 50 f;
#X obj 514 -16 / 44100;
#X obj 514 14 * 1000;
#X obj 128 -5 inlet loadfile;
#X obj 429 207 *~ 0.1;
#X obj 429 -76 inlet trigger;
#X obj 128 135 s SAMPCOUNTK;
#X obj 514 -52 r SAMPCOUNTK;
#X obj 90 379 table SAMPLEK 100;
#X msg 128 75 read -resize \$1 SAMPLEK;
#X obj 430 133 tabread~ SAMPLEK;
#X obj 428 266 outlet~;
#X connect 0 0 12 0;
#X connect 1 0 15 0;
#X connect 2 0 16 0;
#X connect 3 0 6 0;
#X connect 3 1 4 0;
#X connect 4 0 2 0;
#X connect 5 0 2 0;
#X connect 6 0 5 0;
#X connect 7 0 8 0;
#X connect 8 0 5 1;
#X connect 9 0 1 0;
#X connect 10 0 17 0;
#X connect 11 0 3 0;
#X connect 13 0 7 0;
#X connect 13 0 6 1;
#X connect 15 0 0 0;
#X connect 16 0 10 0;
#X restore 373 395 pd sampleplayer;
#X msg 373 342 pd/samples/kick.wav;
#X obj 373 316 r bang_drums;
#X obj 545 402 t b;
#N canvas 835 238 858 665 sampleplayer 0;
#X obj 128 103 soundfiler;
#X obj 128 33 pack s \$0;
#X obj 458 101 line~;
#X obj 429 -52 t b b;
#X msg 509 73 0;
#X obj 429 74 pack f f;
#X obj 429 50 f;
#X obj 514 -16 / 44100;
#X obj 514 14 * 1000;
#X obj 128 -5 inlet loadfile;
#X obj 458 204 *~ 0.1;
#X obj 429 -76 inlet trigger;
#X msg 128 75 read -resize \$1 SAMPLES;
#X obj 90 379 table SAMPLES 100;
#X obj 459 130 tabread~ SAMPLES;
#X obj 128 135 s SAMPCOUNTS;
#X obj 514 -52 r SAMPCOUNTS;
#X obj 438 276 outlet~;
#X connect 0 0 15 0;
#X connect 1 0 12 0;
#X connect 2 0 14 0;
#X connect 3 0 6 0;
#X connect 3 1 4 0;
#X connect 4 0 2 0;
#X connect 5 0 2 0;
#X connect 6 0 5 0;
#X connect 7 0 8 0;
#X connect 8 0 5 1;
#X connect 9 0 1 0;
#X connect 10 0 17 0;
#X connect 11 0 3 0;
#X connect 12 0 0 0;
#X connect 14 0 10 0;
#X connect 16 0 7 0;
#X connect 16 0 6 1;
#X restore 458 476 pd sampleplayer;
#X obj 458 423 r bang_drums;
#X msg 458 449 pd/samples/snare.wav;
#X obj 677 487 t b;
#N canvas 835 238 858 665 sampleplayer 0;
#X obj 128 103 soundfiler;
#X obj 128 33 pack s \$0;
#X obj 458 101 line~;
#X obj 429 -52 t b b;
#X msg 509 73 0;
#X obj 429 74 pack f f;
#X obj 429 50 f;
#X obj 514 -16 / 44100;
#X obj 514 14 * 1000;
#X obj 128 -5 inlet loadfile;
#X obj 458 204 *~ 0.1;
#X obj 429 -76 inlet trigger;
#X msg 128 75 read -resize \$1 SAMPLEH;
#X obj 90 379 table SAMPLEH 100;
#X obj 128 135 s SAMPCOUNTH;
#X obj 514 -52 r SAMPCOUNTH;
#X obj 459 130 tabread~ SAMPLEH;
#X obj 448 286 outlet~;
#X connect 0 0 14 0;
#X connect 1 0 12 0;
#X connect 2 0 16 0;
#X connect 3 0 6 0;
#X connect 3 1 4 0;
#X connect 4 0 2 0;
#X connect 5 0 2 0;
#X connect 6 0 5 0;
#X connect 7 0 8 0;
#X connect 8 0 5 1;
#X connect 9 0 1 0;
#X connect 10 0 17 0;
#X connect 11 0 3 0;
#X connect 12 0 0 0;
#X connect 15 0 7 0;
#X connect 15 0 6 1;
#X connect 16 0 10 0;
#X restore 590 561 pd sampleplayer;
#X obj 590 508 r bang_drums;
#X msg 590 534 pd/samples/hh.wav;
#X obj 376 562 outlet~;
#X obj 476 633 outlet~;
#X obj 609 649 outlet~;
#X connect 0 0 1 0;
#X connect 1 0 2 0;
#X connect 2 0 6 0;
#X connect 2 2 14 0;
#X connect 2 4 3 0;
#X connect 3 0 6 0;
#X connect 3 0 10 0;
#X connect 3 2 14 0;
#X connect 3 4 4 0;
#X connect 4 0 6 0;
#X connect 4 2 14 0;
#X connect 4 4 5 0;
#X connect 5 0 6 0;
#X connect 5 0 10 0;
#X connect 5 2 14 0;
#X connect 6 0 7 1;
#X connect 7 0 18 0;
#X connect 8 0 7 0;
#X connect 9 0 8 0;
#X connect 10 0 11 1;
#X connect 11 0 19 0;
#X connect 12 0 13 0;
#X connect 13 0 11 0;
#X connect 14 0 15 1;
#X connect 15 0 20 0;
#X connect 16 0 17 0;
#X connect 17 0 15 0;
#X restore 320 595 pd drums;
#X obj 127 157 s bang_drums;
#N canvas 0 0 1916 978 leadsynthesizer 0;
#X obj 59 51 inlet tempo;
#X obj 158 53 inlet pitch;
#X obj 286 56 inlet rhythm;
#X floatatom 69 148 5 0 0 0 - - -;
#X msg 1484 120 set \$1;
#X obj 284 131 s mrl;
#X obj 1457 63 r mrl;
#X obj 1459 182 s rl1;
#X obj 160 145 s pitch_lead;
#X obj 73 378 r rl1;
#X obj 1457 98 t b a;
#X obj 59 172 select 1 2 3 4 5 6 7 8 9 10 11 12 13 14 15 16;
#X obj 1541 63 r mrl;
#X obj 1541 98 t b a;
#X obj 1734 104 t b a;
#X obj 1627 65 r mrl;
#X obj 1627 100 t b a;
#X obj 1734 69 r mrl;
#X msg 1654 122 set \$3;
#X msg 1761 126 set \$4;
#X obj 1734 174 s rl4;
#X obj 1612 186 s rl3;
#X msg 1568 120 set \$2;
#X obj 1527 184 s rl2;
#X obj 75 480 f;
#X obj 92 556 f;
#X obj 109 646 f;
#X obj 89 455 r rl2;
#X obj 106 531 r rl3;
#X obj 123 621 r rl4;
#X obj 55 425 s lead_length;
#X obj 72 505 s lead_length;
#X obj 89 581 s lead_length;
#X obj 106 671 s lead_length;
#X obj 769 494 *~;
#X msg 1471 148 1;
#X obj 59 400 f;
#X msg 1538 145 0;
#X msg 1619 145 1;
#X msg 1730 142 0;
#X obj 927 531 line~;
#X msg 900 408 1 5;
#X obj 901 296 r lead_length;
#X obj 991 404 delay 50;
#X obj 1450 251 r mrl;
#X obj 1450 286 t b a;
#X obj 1534 251 r mrl;
#X obj 1534 286 t b a;
#X obj 1727 292 t b a;
#X obj 1620 253 r mrl;
#X obj 1620 288 t b a;
#X obj 1727 257 r mrl;
#X msg 1464 336 1;
#X msg 1531 333 0;
#X msg 1612 333 1;
#X msg 1723 330 0;
#X msg 1477 308 set \$5;
#X obj 1452 370 s rl5;
#X msg 1561 308 set \$6;
#X obj 1520 372 s rl6;
#X msg 1647 310 set \$7;
#X obj 1605 374 s rl7;
#X msg 1754 314 set \$8;
#X obj 1727 362 s rl8;
#X obj 142 457 f;
#X obj 158 532 f;
#X obj 176 620 f;
#X obj 121 393 s lead_length;
#X obj 139 482 s lead_length;
#X obj 155 557 s lead_length;
#X obj 173 645 s lead_length;
#X obj 125 368 f;
#X obj 139 346 r rl5;
#X obj 156 432 r rl6;
#X obj 172 507 r rl7;
#X obj 190 595 r rl8;
#X obj 1443 427 r mrl;
#X obj 1443 462 t b a;
#X obj 1527 427 r mrl;
#X obj 1527 462 t b a;
#X obj 1720 468 t b a;
#X obj 1613 429 r mrl;
#X obj 1613 464 t b a;
#X obj 1720 433 r mrl;
#X msg 1457 512 1;
#X msg 1524 509 0;
#X msg 1605 509 1;
#X msg 1716 506 0;
#X obj 1436 615 r mrl;
#X obj 1436 650 t b a;
#X obj 1520 615 r mrl;
#X obj 1520 650 t b a;
#X obj 1713 656 t b a;
#X obj 1606 617 r mrl;
#X obj 1606 652 t b a;
#X obj 1713 621 r mrl;
#X msg 1450 700 1;
#X msg 1517 697 0;
#X msg 1598 697 1;
#X msg 1709 694 0;
#X msg 1470 484 set \$9;
#X obj 1445 546 s rl9;
#X msg 1554 484 set \$10;
#X obj 1513 548 s rl10;
#X msg 1640 486 set \$11;
#X obj 1598 550 s rl11;
#X msg 1747 490 set \$12;
#X obj 1720 538 s rl12;
#X msg 1463 672 set \$13;
#X obj 1438 734 s rl13;
#X msg 1547 672 set \$14;
#X obj 1506 736 s rl14;
#X msg 1633 674 set \$15;
#X obj 1591 738 s rl15;
#X msg 1740 678 set \$16;
#X obj 1713 726 s rl16;
#X obj 209 422 f;
#X obj 225 504 f;
#X obj 243 593 f;
#X obj 188 363 s lead_length;
#X obj 206 447 s lead_length;
#X obj 222 529 s lead_length;
#X obj 240 618 s lead_length;
#X obj 192 338 f;
#X obj 275 398 f;
#X obj 292 475 f;
#X obj 309 559 f;
#X obj 255 344 s lead_length;
#X obj 272 423 s lead_length;
#X obj 289 500 s lead_length;
#X obj 306 584 s lead_length;
#X obj 259 319 f;
#X obj 206 316 r rl9;
#X obj 223 397 r rl10;
#X obj 239 479 r rl11;
#X obj 257 568 r rl12;
#X obj 273 297 r rl13;
#X obj 289 373 r rl14;
#X obj 306 450 r rl15;
#X obj 323 534 r rl16;
#X obj 929 375 select 2 1 0;
#X obj 900 355 t b f;
#X obj 901 325 select 0;
#X obj 929 405 delay 100;
#N canvas 0 0 1916 978 syntone_lead 0;
#X obj 829 527 outlet~;
#X obj 427 60 phasor~;
#X obj 477 57 phasor~;
#X obj 473 124 +~;
#X obj 427 92 -~ 0.5;
#X obj 477 94 -~ 0.5;
#X obj 998 330 vsl 15 128 0 1000 0 0 empty empty empty 0 -9 0 10 -262144
-1 -1 0 1;
#X obj 427 7 -;
#X obj 477 0 +;
#X obj 480 -38 t b b f f;
#X obj 1074 336 vsl 15 128 0.5 5 0 0 empty empty empty 0 -9 0 10 -262144
-1 -1 0 1;
#X floatatom 997 479 5 0 0 0 - - -;
#X floatatom 1072 482 5 0 0 0 - - -;
#X obj 791 337 clip~ -0.5 0.5;
#X obj 747 247 +~;
#X obj 801 75 * -1;
#X obj 805 99 + 1;
#X obj 642 180 *~ 1;
#X obj 879 124 *~ 0;
#N canvas 314 219 450 300 scale 0;
#X obj 79 89 inlet;
#X obj 82 238 outlet;
#X obj 80 146 / 127;
#X obj 80 176 * 5;
#X connect 0 0 2 0;
#X connect 2 0 3 0;
#X connect 3 0 1 0;
#X restore 483 -70 pd scale;
#N canvas 314 219 450 300 scale 0;
#X obj 79 89 inlet;
#X obj 82 238 outlet;
#X obj 80 146 / 127;
#X obj 80 176 * 0.5;
#X connect 0 0 2 0;
#X connect 2 0 3 0;
#X connect 3 0 1 0;
#X restore 802 21 pd scale;
#X obj 366 -246 inlet pitch;
#X obj 483 -259 inlet p1;
#X obj 819 -280 inlet p2;
#X obj 791 314 *~ 40;
#N canvas 0 0 1916 978 overtones 0;
#X obj 113 15 inlet pitch;
#X obj 168 298 outlet~;
#X obj 111 124 osc~;
#X obj 132 179 +~;
#X obj 160 121 osc~;
#X obj 99 90 * 2;
#X obj 206 107 osc~;
#X obj 227 162 +~;
#X obj 255 104 osc~;
#X obj 147 86 * 3;
#X obj 193 72 * 4;
#X obj 242 69 * 5;
#X obj 174 211 +~;
#X obj 160 238 *~ 0.3;
#X connect 0 0 5 0;
#X connect 0 0 9 0;
#X connect 0 0 10 0;
#X connect 0 0 11 0;
#X connect 2 0 3 0;
#X connect 3 0 12 0;
#X connect 4 0 3 1;
#X connect 5 0 2 0;
#X connect 6 0 7 0;
#X connect 7 0 12 1;
#X connect 8 0 7 1;
#X connect 9 0 4 0;
#X connect 10 0 6 0;
#X connect 11 0 8 0;
#X connect 12 0 13 0;
#X connect 13 0 1 0;
#X restore 872 21 pd overtones;
#X obj 828 479 bp~ 1000 0.5;
#X obj 576 -272 vsl 15 128 0 127 0 0 empty empty empty 0 -9 0 10 -262144
-1 -1 0 1;
#X floatatom 577 -128 5 0 0 0 - - -;
#X obj 837 -256 vsl 15 128 0 127 0 0 empty empty empty 0 -9 0 10 -262144
-1 -1 0 1;
#X floatatom 838 -112 5 0 0 0 - - -;
#X connect 1 0 4 0;
#X connect 2 0 5 0;
#X connect 3 0 17 0;
#X connect 4 0 3 0;
#X connect 5 0 3 1;
#X connect 6 0 11 0;
#X connect 6 0 26 1;
#X connect 7 0 1 0;
#X connect 8 0 2 0;
#X connect 9 0 7 0;
#X connect 9 1 8 0;
#X connect 9 2 7 1;
#X connect 9 3 8 1;
#X connect 10 0 12 0;
#X connect 10 0 26 2;
#X connect 13 0 26 0;
#X connect 14 0 24 0;
#X connect 15 0 16 0;
#X connect 16 0 17 1;
#X connect 17 0 14 0;
#X connect 18 0 14 1;
#X connect 19 0 9 0;
#X connect 20 0 18 1;
#X connect 20 0 15 0;
#X connect 21 0 7 0;
#X connect 21 0 8 0;
#X connect 21 0 25 0;
#X connect 22 0 19 0;
#X connect 23 0 20 0;
#X connect 24 0 13 0;
#X connect 25 0 18 0;
#X connect 26 0 0 0;
#X connect 27 0 28 0;
#X connect 27 0 19 0;
#X connect 29 0 30 0;
#X connect 29 0 20 0;
#X restore 769 384 pd syntone_lead;
#X obj 510 637 *~ 0.15;
#X obj 769 349 mtof;
#X obj 648 377 select 0;
#X msg 650 481 0 5;
#X msg 692 481 1 5;
#X obj 769 563 *~;
#X obj 648 271 t f f;
#X obj 648 231 r pitch_lead;
#X obj 710 314 select 0;
#N canvas 314 219 450 300 scale 0;
#X obj 79 89 inlet;
#X obj 82 238 outlet;
#X obj 80 146 / 127;
#X obj 80 176 * 0.5;
#X connect 0 0 2 0;
#X connect 2 0 3 0;
#X connect 3 0 1 0;
#X restore 549 586 pd scale;
#X msg 178 78 69;
#N canvas 1166 291 450 300 scale 0;
#X obj 89 99 inlet;
#X obj 92 248 outlet;
#X obj 90 156 / 127;
#X obj 92 218 + 1;
#X obj 90 186 * 150;
#X connect 0 0 2 0;
#X connect 2 0 4 0;
#X connect 3 0 1 0;
#X connect 4 0 3 0;
#X restore 1108 377 pd scale;
#X obj 692 516 line~ 0;
#X obj 568 84 vsl 15 128 0 127 0 0 empty empty empty 0 -9 0 10 -262144
-1 -1 0 1;
#X floatatom 569 228 5 0 0 0 - - -;
#X obj 1125 135 vsl 15 128 0 127 0 0 empty empty empty 0 -9 0 10 -262144
-1 -1 0 1;
#X floatatom 1126 279 5 0 0 0 - - -;
#X obj 885 79 vsl 15 128 0 127 0 0 empty empty empty 0 -9 0 10 -262144
-1 -1 0 1;
#X floatatom 886 223 5 0 0 0 - - -;
#X obj 813 75 vsl 15 128 0 127 0 0 empty empty empty 0 -9 0 10 -262144
-1 -1 0 1;
#X floatatom 814 219 5 0 0 0 - - -;
#X obj 538 54 r lp1;
#X obj 778 51 r lp2;
#X obj 866 53 r lp3;
#X obj 1109 100 r lp4;
#X obj 972 505 pack;
#X msg 955 485 0;
#X obj 979 448 t b b;
#X obj 1050 485 f 50;
#X obj 617 445 spigot 0;
#X obj 590 336 r lcon;
#X obj 589 363 * -1;
#X obj 590 397 + 1;
#X obj 509 688 outlet~;
#X connect 0 0 3 0;
#X connect 0 0 11 0;
#X connect 1 0 8 0;
#X connect 2 0 5 0;
#X connect 4 0 35 0;
#X connect 6 0 10 0;
#X connect 9 0 36 1;
#X connect 10 0 35 0;
#X connect 10 1 4 0;
#X connect 11 0 36 0;
#X connect 11 1 24 0;
#X connect 11 2 25 0;
#X connect 11 3 26 0;
#X connect 11 4 71 0;
#X connect 11 5 64 0;
#X connect 11 6 65 0;
#X connect 11 7 66 0;
#X connect 11 8 123 0;
#X connect 11 9 116 0;
#X connect 11 10 117 0;
#X connect 11 11 118 0;
#X connect 11 12 131 0;
#X connect 11 13 124 0;
#X connect 11 14 125 0;
#X connect 11 15 126 0;
#X connect 12 0 13 0;
#X connect 13 0 37 0;
#X connect 13 1 22 0;
#X connect 14 0 39 0;
#X connect 14 1 19 0;
#X connect 15 0 16 0;
#X connect 16 0 38 0;
#X connect 16 1 18 0;
#X connect 17 0 14 0;
#X connect 18 0 38 0;
#X connect 19 0 39 0;
#X connect 22 0 37 0;
#X connect 24 0 31 0;
#X connect 25 0 32 0;
#X connect 26 0 33 0;
#X connect 27 0 24 1;
#X connect 28 0 25 1;
#X connect 29 0 26 1;
#X connect 34 0 150 0;
#X connect 35 0 7 0;
#X connect 36 0 30 0;
#X connect 37 0 23 0;
#X connect 38 0 21 0;
#X connect 39 0 20 0;
#X connect 40 0 34 1;
#X connect 41 0 40 0;
#X connect 42 0 142 0;
#X connect 43 0 172 0;
#X connect 44 0 45 0;
#X connect 45 0 52 0;
#X connect 45 1 56 0;
#X connect 46 0 47 0;
#X connect 47 0 53 0;
#X connect 47 1 58 0;
#X connect 48 0 55 0;
#X connect 48 1 62 0;
#X connect 49 0 50 0;
#X connect 50 0 54 0;
#X connect 50 1 60 0;
#X connect 51 0 48 0;
#X connect 52 0 57 0;
#X connect 53 0 59 0;
#X connect 54 0 61 0;
#X connect 55 0 63 0;
#X connect 56 0 52 0;
#X connect 58 0 53 0;
#X connect 60 0 54 0;
#X connect 62 0 55 0;
#X connect 64 0 68 0;
#X connect 65 0 69 0;
#X connect 66 0 70 0;
#X connect 71 0 67 0;
#X connect 72 0 71 1;
#X connect 73 0 64 1;
#X connect 74 0 65 1;
#X connect 75 0 66 1;
#X connect 76 0 77 0;
#X connect 77 0 84 0;
#X connect 77 1 100 0;
#X connect 78 0 79 0;
#X connect 79 0 85 0;
#X connect 79 1 102 0;
#X connect 80 0 87 0;
#X connect 80 1 106 0;
#X connect 81 0 82 0;
#X connect 82 0 86 0;
#X connect 82 1 104 0;
#X connect 83 0 80 0;
#X connect 84 0 101 0;
#X connect 85 0 103 0;
#X connect 86 0 105 0;
#X connect 87 0 107 0;
#X connect 88 0 89 0;
#X connect 89 0 96 0;
#X connect 89 1 108 0;
#X connect 90 0 91 0;
#X connect 91 0 97 0;
#X connect 91 1 110 0;
#X connect 92 0 99 0;
#X connect 92 1 114 0;
#X connect 93 0 94 0;
#X connect 94 0 98 0;
#X connect 94 1 112 0;
#X connect 95 0 92 0;
#X connect 96 0 109 0;
#X connect 97 0 111 0;
#X connect 98 0 113 0;
#X connect 99 0 115 0;
#X connect 100 0 84 0;
#X connect 102 0 85 0;
#X connect 104 0 86 0;
#X connect 106 0 87 0;
#X connect 108 0 96 0;
#X connect 110 0 97 0;
#X connect 112 0 98 0;
#X connect 114 0 99 0;
#X connect 116 0 120 0;
#X connect 117 0 121 0;
#X connect 118 0 122 0;
#X connect 123 0 119 0;
#X connect 124 0 128 0;
#X connect 125 0 129 0;
#X connect 126 0 130 0;
#X connect 131 0 127 0;
#X connect 132 0 123 1;
#X connect 133 0 116 1;
#X connect 134 0 117 1;
#X connect 135 0 118 1;
#X connect 136 0 131 1;
#X connect 137 0 124 1;
#X connect 138 0 125 1;
#X connect 139 0 126 1;
#X connect 140 0 143 0;
#X connect 140 1 43 0;
#X connect 141 0 41 0;
#X connect 141 1 140 0;
#X connect 142 1 141 0;
#X connect 143 0 172 0;
#X connect 144 0 34 0;
#X connect 145 0 178 0;
#X connect 146 0 144 0;
#X connect 147 0 174 0;
#X connect 147 1 149 0;
#X connect 148 0 157 0;
#X connect 149 0 157 0;
#X connect 150 0 145 0;
#X connect 151 0 147 0;
#X connect 151 1 153 0;
#X connect 152 0 151 0;
#X connect 153 1 146 0;
#X connect 154 0 145 1;
#X connect 155 0 8 0;
#X connect 156 0 173 1;
#X connect 157 0 150 1;
#X connect 158 0 159 0;
#X connect 158 0 154 0;
#X connect 160 0 161 0;
#X connect 160 0 156 0;
#X connect 162 0 163 0;
#X connect 162 0 144 2;
#X connect 164 0 165 0;
#X connect 164 0 144 1;
#X connect 166 0 154 0;
#X connect 167 0 144 1;
#X connect 168 0 144 2;
#X connect 169 0 156 0;
#X connect 170 0 40 0;
#X connect 171 0 170 0;
#X connect 172 0 171 0;
#X connect 172 1 173 0;
#X connect 173 0 170 1;
#X connect 174 0 148 0;
#X connect 175 0 176 0;
#X connect 176 0 177 0;
#X connect 177 0 174 1;
#X restore 378 594 pd leadsynthesizer;
#X obj 482 560 r lrhythm;
#X obj 107 182 s bang_rhythm;
#N canvas 728 124 942 960 swing 0;
#X obj 125 72 inlet;
#X obj 264 39 inlet;
#N canvas 314 219 450 300 scale 0;
#X obj 83 110 inlet;
#X obj 80 251 outlet;
#X obj 80 146 / 127;
#X obj 80 176 * 98;
#X obj 78 217 + 126;
#X connect 0 0 2 0;
#X connect 2 0 3 0;
#X connect 3 0 4 0;
#X connect 4 0 1 0;
#X restore 264 138 pd scale;
#N canvas 314 219 450 300 scale 0;
#X obj 83 110 inlet;
#X obj 80 251 outlet;
#X obj 80 146 / 127;
#X obj 78 217 + 126;
#X obj 80 176 * -14;
#X connect 0 0 2 0;
#X connect 2 0 4 0;
#X connect 3 0 1 0;
#X connect 4 0 3 0;
#X restore 355 149 pd scale;
#N canvas 314 219 450 300 scale 0;
#X obj 83 110 inlet;
#X obj 80 251 outlet;
#X obj 80 146 / 127;
#X obj 78 217 + 126;
#X obj 80 176 * -70;
#X connect 0 0 2 0;
#X connect 2 0 4 0;
#X connect 3 0 1 0;
#X connect 4 0 3 0;
#X restore 431 150 pd scale;
#X obj 264 77 t a a a;
#X obj 125 195 select 1 5 9 13;
#X obj 378 468 + 1;
#X obj 378 499 mod 16;
#X obj 340 598 outlet;
#X obj 337 482 f 2;
#X obj 237 273 delay 126;
#X obj 328 294 delay 126;
#X obj 375 320 delay 126;
#X obj 445 334 delay 126;
#X connect 0 0 6 0;
#X connect 1 0 5 0;
#X connect 2 0 11 1;
#X connect 3 0 12 1;
#X connect 3 0 13 1;
#X connect 4 0 14 1;
#X connect 5 0 2 0;
#X connect 5 1 3 0;
#X connect 5 2 4 0;
#X connect 6 0 11 0;
#X connect 6 1 11 0;
#X connect 6 2 11 0;
#X connect 6 3 11 0;
#X connect 7 0 10 1;
#X connect 8 0 7 0;
#X connect 10 0 8 0;
#X connect 10 0 9 0;
#X connect 11 0 10 0;
#X connect 11 0 12 0;
#X connect 12 0 10 0;
#X connect 12 0 13 0;
#X connect 13 0 10 0;
#X connect 13 0 14 0;
#X connect 14 0 10 0;
#X restore 565 511 pd swing;
#X obj 877 528 select 1 2 3 4 5 6 7 8 9 10 11 12 13 14 15 16;
#X obj 896 596 bng 15 250 50 0 empty empty empty 17 7 0 10 -262144
-258113 -4034;
#X obj 906 606 bng 15 250 50 0 empty empty empty 17 7 0 10 -262144
-4034 -1;
#X obj 916 616 bng 15 250 50 0 empty empty empty 17 7 0 10 -262144
-4032 -1;
#X obj 926 626 bng 15 250 50 0 empty empty empty 17 7 0 10 -262144
-261234 -1;
#X msg 399 274 stop;
#X obj 1259 75 vsl 15 128 0 127 0 0 empty empty empty 0 -9 0 10 -262144
-1 -1 5900 1;
#X floatatom 1268 226 5 0 0 0 - - -;
#X obj 299 255 r bang_metro_on;
#X obj 607 564 r brhythm;
#N canvas 0 0 1916 978 basssynthesizer 0;
#X obj 66 83 inlet tempo;
#X obj 164 19 inlet pitch;
#X floatatom 81 110 5 0 0 0 - - -;
#X msg 1453 137 set \$1;
#X obj 1426 115 t b a;
#X obj 67 176 select 1 2 3 4 5 6 7 8 9 10 11 12 13 14 15 16;
#X obj 1510 115 t b a;
#X obj 1703 121 t b a;
#X obj 1596 117 t b a;
#X msg 1623 139 set \$3;
#X msg 1730 143 set \$4;
#X msg 1537 137 set \$2;
#X obj 83 434 f;
#X obj 99 520 f;
#X obj 115 598 f;
#X obj 1033 478 *~;
#X msg 1440 165 1;
#X obj 67 347 f;
#X msg 1507 162 0;
#X msg 1588 162 1;
#X msg 1699 159 0;
#X obj 1419 303 t b a;
#X obj 1503 303 t b a;
#X obj 1696 309 t b a;
#X obj 1589 305 t b a;
#X msg 1433 353 1;
#X msg 1500 350 0;
#X msg 1581 350 1;
#X msg 1692 347 0;
#X msg 1446 325 set \$5;
#X msg 1530 325 set \$6;
#X msg 1616 327 set \$7;
#X msg 1723 331 set \$8;
#X obj 149 398 f;
#X obj 167 489 f;
#X obj 183 572 f;
#X obj 133 326 f;
#X obj 1426 80 r mrb;
#X obj 1510 80 r mrb;
#X obj 1596 82 r mrb;
#X obj 1703 86 r mrb;
#X obj 1419 268 r mrb;
#X obj 1503 268 r mrb;
#X obj 1589 270 r mrb;
#X obj 1696 274 r mrb;
#X obj 1428 199 s rb1;
#X obj 1496 201 s rb2;
#X obj 1581 203 s rb3;
#X obj 1703 191 s rb4;
#X obj 1421 387 s rb5;
#X obj 1489 389 s rb6;
#X obj 1574 391 s rb7;
#X obj 1696 379 s rb8;
#X obj 663 188 r bass_length;
#X obj 80 459 s bass_length;
#X obj 63 372 s bass_length;
#X obj 112 623 s bass_length;
#X obj 96 545 s bass_length;
#X obj 129 351 s bass_length;
#X obj 146 423 s bass_length;
#X obj 180 597 s bass_length;
#X obj 164 514 s bass_length;
#X obj 97 409 r rb2;
#X obj 81 325 r rb1;
#X obj 114 495 r rb3;
#X obj 129 573 r rb4;
#X obj 147 304 r rb5;
#X obj 163 373 r rb6;
#X obj 181 464 r rb7;
#X obj 197 547 r rb8;
#X obj 316 112 s mrb;
#X obj 166 142 s pitch_bass;
#X obj 1408 460 r mrb;
#X obj 1408 495 t b a;
#X obj 1492 460 r mrb;
#X obj 1492 495 t b a;
#X obj 1685 501 t b a;
#X obj 1578 462 r mrb;
#X obj 1578 497 t b a;
#X obj 1685 466 r mrb;
#X msg 1422 545 1;
#X msg 1489 542 0;
#X msg 1570 542 1;
#X msg 1681 539 0;
#X obj 1401 648 r mrb;
#X obj 1401 683 t b a;
#X obj 1485 648 r mrb;
#X obj 1485 683 t b a;
#X obj 1678 689 t b a;
#X obj 1571 650 r mrb;
#X obj 1571 685 t b a;
#X obj 1678 654 r mrb;
#X msg 1415 733 1;
#X msg 1482 730 0;
#X msg 1563 730 1;
#X msg 1674 727 0;
#X msg 1435 517 set \$9;
#X obj 1410 579 s rb9;
#X msg 1519 517 set \$10;
#X obj 1478 581 s rb10;
#X msg 1605 519 set \$11;
#X obj 1563 583 s rb11;
#X msg 1712 523 set \$12;
#X obj 1685 571 s rb12;
#X msg 1428 705 set \$13;
#X obj 1403 767 s rb13;
#X msg 1512 705 set \$14;
#X obj 1471 769 s rb14;
#X msg 1598 707 set \$15;
#X obj 1556 771 s rb15;
#X msg 1705 711 set \$16;
#X obj 1678 759 s rb16;
#X obj 217 375 f;
#X obj 232 462 f;
#X obj 250 551 f;
#X obj 196 328 s bass_length;
#X obj 214 400 s bass_length;
#X obj 229 487 s bass_length;
#X obj 247 576 s bass_length;
#X obj 200 303 f;
#X obj 284 356 f;
#X obj 300 437 f;
#X obj 317 520 f;
#X obj 263 305 s bass_length;
#X obj 281 381 s bass_length;
#X obj 297 462 s bass_length;
#X obj 314 545 s bass_length;
#X obj 267 280 f;
#X obj 214 281 r rb9;
#X obj 231 350 r rb10;
#X obj 246 437 r rb11;
#X obj 264 526 r rb12;
#X obj 281 258 r rb13;
#X obj 298 331 r rb14;
#X obj 314 412 r rb15;
#X obj 331 495 r rb16;
#X obj 661 426 line~;
#X msg 661 312 1 5;
#X obj 719 276 select 2 1 0;
#X obj 661 256 t b f;
#X obj 663 227 select 0;
#X obj 719 309 delay 100;
#X obj 781 308 delay 50;
#X obj 950 519 select 0;
#X obj 1034 390 mtof;
#X msg 187 57 0;
#X msg 950 596 0 5;
#X msg 995 595 1 5;
#X obj 1032 683 *~;
#X obj 950 273 r pitch_bass;
#X obj 950 307 t f f;
#N canvas 307 73 1280 731 syntone_bass~ 0;
#X obj 305 414 outlet~;
#X obj 579 80 vsl 15 128 100 1000 0 0 empty empty empty 0 -9 0 10 -262144
-1 -1 0 1;
#X obj 199 71 inlet;
#X obj 662 84 vsl 15 128 0.5 5 0 0 empty empty empty 0 -9 0 10 -262144
-1 -1 0 1;
#X floatatom 578 229 5 0 0 0 - - -;
#X floatatom 660 230 5 0 0 0 - - -;
#X obj 200 322 clip~ -0.5 0.5;
#X obj 199 149 osc~;
#X obj 200 299 *~ 1;
#X obj 199 113 / 4;
#X obj 199 261 +~;
#X obj 242 150 osc~;
#X obj 242 115 / 2;
#N canvas 1026 344 450 300 scale 0;
#X obj 99 109 inlet;
#X obj 102 258 outlet;
#X obj 100 166 / 127;
#X obj 100 196 * 40;
#X obj 107 227 + 1;
#X connect 0 0 2 0;
#X connect 2 0 3 0;
#X connect 3 0 4 0;
#X connect 4 0 1 0;
#X restore 307 178 pd scale;
#X obj 307 72 inlet;
#X obj 306 387 bp~ 1000 0.5;
#X text 577 26 Not used parameters;
#X text 577 47 Filter freq and res;
#X obj 414 37 vsl 15 128 0 127 0 0 empty empty empty 0 -9 0 10 -262144
-1 -1 0 1;
#X floatatom 416 180 5 0 0 0 - - -;
#X text 409 6 Fuzz;
#X connect 1 0 4 0;
#X connect 1 0 15 1;
#X connect 2 0 9 0;
#X connect 2 0 12 0;
#X connect 3 0 5 0;
#X connect 3 0 15 2;
#X connect 6 0 15 0;
#X connect 7 0 10 0;
#X connect 8 0 6 0;
#X connect 9 0 7 0;
#X connect 10 0 8 0;
#X connect 11 0 10 1;
#X connect 12 0 11 0;
#X connect 13 0 8 1;
#X connect 14 0 13 0;
#X connect 15 0 0 0;
#X connect 18 0 19 0;
#X connect 18 0 13 0;
#X restore 1034 416 pd syntone_bass~;
#X msg 264 58 69;
#X obj 565 706 *~ 0.4;
#N canvas 314 219 450 300 scale 0;
#X obj 79 89 inlet;
#X obj 82 238 outlet;
#X obj 80 146 / 127;
#X obj 80 176 * 0.5;
#X connect 0 0 2 0;
#X connect 2 0 3 0;
#X connect 3 0 1 0;
#X restore 602 634 pd scale;
#X obj 988 343 select 0;
#X msg 224 55 57;
#X obj 292 29 inlet rhythm;
#N canvas 314 219 450 300 scale 0;
#X obj 79 89 inlet;
#X obj 82 238 outlet;
#X obj 80 146 / 127;
#X obj 80 176 * 150;
#X obj 79 205 + 50;
#X connect 0 0 2 0;
#X connect 2 0 3 0;
#X connect 3 0 4 0;
#X connect 4 0 1 0;
#X restore 856 308 pd scale;
#X obj 950 637 line~ 0;
#X obj 1149 58 vsl 15 128 0 127 0 0 empty empty empty 0 -9 0 10 -262144
-1 -1 0 1;
#X floatatom 1150 202 5 0 0 0 - - -;
#X obj 864 75 vsl 15 128 0 127 0 0 empty empty empty 0 -9 0 10 -262144
-1 -1 0 1;
#X floatatom 865 219 5 0 0 0 - - -;
#X obj 602 77 vsl 15 128 0 127 0 0 empty empty empty 0 -9 0 10 -262144
-1 -1 0 1;
#X floatatom 603 221 5 0 0 0 - - -;
#X floatatom 547 672 5 0 0 0 - - -;
#X obj 620 580 r bp1;
#X obj 874 263 r bp2;
#X obj 1145 368 r bp3;
#X msg 832 847 0 110.236;
#X msg 964 812 set 0 \$1;
#X obj 988 857 print A:;
#X obj 859 888 print B:;
#X obj 736 350 t b b;
#X msg 709 377 0;
#X obj 767 381 f 50;
#X obj 722 405 pack;
#X obj 918 563 spigot 0;
#X obj 830 505 * -1;
#X obj 831 539 + 1;
#X obj 831 478 r bcon;
#X obj 564 743 outlet~;
#X connect 0 0 2 0;
#X connect 0 0 5 0;
#X connect 1 0 71 0;
#X connect 3 0 16 0;
#X connect 4 0 16 0;
#X connect 4 1 3 0;
#X connect 5 0 17 0;
#X connect 5 1 12 0;
#X connect 5 2 13 0;
#X connect 5 3 14 0;
#X connect 5 4 36 0;
#X connect 5 5 33 0;
#X connect 5 6 34 0;
#X connect 5 7 35 0;
#X connect 5 8 119 0;
#X connect 5 9 112 0;
#X connect 5 10 113 0;
#X connect 5 11 114 0;
#X connect 5 12 127 0;
#X connect 5 13 120 0;
#X connect 5 14 121 0;
#X connect 5 15 122 0;
#X connect 6 0 18 0;
#X connect 6 1 11 0;
#X connect 7 0 20 0;
#X connect 7 1 10 0;
#X connect 8 0 19 0;
#X connect 8 1 9 0;
#X connect 9 0 19 0;
#X connect 10 0 20 0;
#X connect 11 0 18 0;
#X connect 12 0 54 0;
#X connect 13 0 57 0;
#X connect 14 0 56 0;
#X connect 15 0 148 0;
#X connect 16 0 45 0;
#X connect 17 0 55 0;
#X connect 18 0 46 0;
#X connect 19 0 47 0;
#X connect 20 0 48 0;
#X connect 21 0 25 0;
#X connect 21 1 29 0;
#X connect 22 0 26 0;
#X connect 22 1 30 0;
#X connect 23 0 28 0;
#X connect 23 1 32 0;
#X connect 24 0 27 0;
#X connect 24 1 31 0;
#X connect 25 0 49 0;
#X connect 26 0 50 0;
#X connect 27 0 51 0;
#X connect 28 0 52 0;
#X connect 29 0 25 0;
#X connect 30 0 26 0;
#X connect 31 0 27 0;
#X connect 32 0 28 0;
#X connect 33 0 59 0;
#X connect 34 0 61 0;
#X connect 35 0 60 0;
#X connect 36 0 58 0;
#X connect 37 0 4 0;
#X connect 38 0 6 0;
#X connect 39 0 8 0;
#X connect 40 0 7 0;
#X connect 41 0 21 0;
#X connect 42 0 22 0;
#X connect 43 0 24 0;
#X connect 44 0 23 0;
#X connect 53 0 140 0;
#X connect 62 0 12 1;
#X connect 63 0 17 1;
#X connect 64 0 13 1;
#X connect 65 0 14 1;
#X connect 66 0 36 1;
#X connect 67 0 33 1;
#X connect 68 0 34 1;
#X connect 69 0 35 1;
#X connect 72 0 73 0;
#X connect 73 0 80 0;
#X connect 73 1 96 0;
#X connect 74 0 75 0;
#X connect 75 0 81 0;
#X connect 75 1 98 0;
#X connect 76 0 83 0;
#X connect 76 1 102 0;
#X connect 77 0 78 0;
#X connect 78 0 82 0;
#X connect 78 1 100 0;
#X connect 79 0 76 0;
#X connect 80 0 97 0;
#X connect 81 0 99 0;
#X connect 82 0 101 0;
#X connect 83 0 103 0;
#X connect 84 0 85 0;
#X connect 85 0 92 0;
#X connect 85 1 104 0;
#X connect 86 0 87 0;
#X connect 87 0 93 0;
#X connect 87 1 106 0;
#X connect 88 0 95 0;
#X connect 88 1 110 0;
#X connect 89 0 90 0;
#X connect 90 0 94 0;
#X connect 90 1 108 0;
#X connect 91 0 88 0;
#X connect 92 0 105 0;
#X connect 93 0 107 0;
#X connect 94 0 109 0;
#X connect 95 0 111 0;
#X connect 96 0 80 0;
#X connect 98 0 81 0;
#X connect 100 0 82 0;
#X connect 102 0 83 0;
#X connect 104 0 92 0;
#X connect 106 0 93 0;
#X connect 108 0 94 0;
#X connect 110 0 95 0;
#X connect 112 0 116 0;
#X connect 113 0 117 0;
#X connect 114 0 118 0;
#X connect 119 0 115 0;
#X connect 120 0 124 0;
#X connect 121 0 125 0;
#X connect 122 0 126 0;
#X connect 127 0 123 0;
#X connect 128 0 119 1;
#X connect 129 0 112 1;
#X connect 130 0 113 1;
#X connect 131 0 114 1;
#X connect 132 0 127 1;
#X connect 133 0 120 1;
#X connect 134 0 121 1;
#X connect 135 0 122 1;
#X connect 136 0 15 1;
#X connect 137 0 136 0;
#X connect 138 0 141 0;
#X connect 138 1 142 0;
#X connect 139 0 137 0;
#X connect 139 1 138 0;
#X connect 140 1 139 0;
#X connect 141 0 174 0;
#X connect 142 0 174 0;
#X connect 143 0 178 0;
#X connect 143 1 147 0;
#X connect 144 0 151 0;
#X connect 145 0 71 0;
#X connect 146 0 159 0;
#X connect 147 0 159 0;
#X connect 148 0 153 0;
#X connect 149 0 150 0;
#X connect 150 0 143 0;
#X connect 150 1 155 0;
#X connect 151 0 15 0;
#X connect 152 0 71 0;
#X connect 153 0 182 0;
#X connect 154 0 166 0;
#X connect 154 0 153 1;
#X connect 155 1 144 0;
#X connect 156 0 71 0;
#X connect 157 0 70 0;
#X connect 158 0 176 1;
#X connect 159 0 148 1;
#X connect 160 0 161 0;
#X connect 160 0 151 1;
#X connect 162 0 163 0;
#X connect 162 0 158 0;
#X connect 164 0 165 0;
#X connect 164 0 154 0;
#X connect 167 0 154 0;
#X connect 168 0 158 0;
#X connect 169 0 151 1;
#X connect 170 0 173 0;
#X connect 171 0 170 0;
#X connect 171 0 172 0;
#X connect 174 0 175 0;
#X connect 174 1 176 0;
#X connect 175 0 177 0;
#X connect 176 0 177 1;
#X connect 177 0 136 0;
#X connect 178 0 146 0;
#X connect 179 0 180 0;
#X connect 180 0 178 1;
#X connect 181 0 179 0;
#X restore 567 604 pd basssynthesizer;
#X obj 610 484 r bp4;
#X obj 303 414 f 1;
#X obj 304 349 metro 126;
#X obj 478 164 r bang_rhythm;
#X obj 912 177 r bang_rhythm;
#X msg 918 236 0 1 1 1 0 1 1 1 0 1 1 1 0 1 1 1;
#X msg 912 211 1 0 1 0 1 0 1 0 1 0 1 0 1 0 1 0;
#X msg 932 72 57;
#X obj 1259 253 s bp4;
#X obj 1214 73 vsl 15 128 0 127 0 0 empty empty empty 0 -9 0 10 -262144
-1 -1 4600 1;
#X floatatom 1223 224 5 0 0 0 - - -;
#X obj 1170 72 vsl 15 128 0 127 0 0 empty empty empty 0 -9 0 10 -262144
-1 -1 12000 1;
#X floatatom 1179 223 5 0 0 0 - - -;
#X obj 1125 70 vsl 15 128 0 127 0 0 empty empty empty 0 -9 0 10 -262144
-1 -1 4100 1;
#X floatatom 1134 221 5 0 0 0 - - -;
#X obj 826 37 vsl 15 128 0 127 0 0 empty empty empty 0 -9 0 10 -262144
-1 -1 0 1;
#X floatatom 835 188 5 0 0 0 - - -;
#X obj 781 35 vsl 15 128 0 127 0 0 empty empty empty 0 -9 0 10 -262144
-1 -1 0 1;
#X floatatom 790 186 5 0 0 0 - - -;
#X obj 737 34 vsl 15 128 0 127 0 0 empty empty empty 0 -9 0 10 -262144
-1 -1 0 1;
#X floatatom 746 185 5 0 0 0 - - -;
#X obj 692 32 vsl 15 128 0 127 0 0 empty empty empty 0 -9 0 10 -262144
-1 -1 5800 1;
#X floatatom 701 183 5 0 0 0 - - -;
#X obj 737 212 s lp2;
#X obj 781 213 s lp3;
#X obj 826 215 s lp4;
#X obj 1125 248 s bp1;
#X obj 1170 250 s bp2;
#X obj 1214 251 s bp3;
#X obj 911 271 s brhythm;
#X obj 932 99 s bmidi;
#X msg 471 89 57;
#X obj 471 116 s lmidi;
#X obj 478 236 s lrhythm;
#X obj 88 122 t b b b;
#X obj 944 596 bng 15 250 50 0 empty empty empty 17 7 0 10 -262144
-232576 -4034;
#X obj 954 606 bng 15 250 50 0 empty empty empty 17 7 0 10 -262144
-4034 -1;
#X obj 964 616 bng 15 250 50 0 empty empty empty 17 7 0 10 -262144
-204800 -1;
#X obj 974 626 bng 15 250 50 0 empty empty empty 17 7 0 10 -262144
-257985 -1;
#X obj 1015 595 bng 15 250 50 0 empty empty empty 17 7 0 10 -262144
-258113 -4034;
#X obj 1025 605 bng 15 250 50 0 empty empty empty 17 7 0 10 -262144
-260097 -1;
#X obj 1035 615 bng 15 250 50 0 empty empty empty 17 7 0 10 -262144
-203904 -1;
#X obj 1045 625 bng 15 250 50 0 empty empty empty 17 7 0 10 -262144
-204786 -1;
#X obj 1063 595 bng 15 250 50 0 empty empty empty 17 7 0 10 -262144
-258113 -4034;
#X obj 1073 605 bng 15 250 50 0 empty empty empty 17 7 0 10 -262144
-159808 -1;
#X obj 1083 615 bng 15 250 50 0 empty empty empty 17 7 0 10 -262144
-261682 -1;
#X obj 1093 625 bng 15 250 50 0 empty empty empty 17 7 0 10 -262144
-4032 -1;
#X obj 692 210 s lp1;
#X msg 478 203 1 0 1 0 1 0 1 0 1 0 1 0 1 0 1 0;
#X obj 239 725 *~ 1;
#X obj 238 764 dac~;
#X obj 256 691 r mvol;
#X obj 286 726 *~ 1;
#X obj 285 765 dac~;
#X obj 303 692 r mvol;
#X obj 331 730 *~ 1;
#X obj 330 769 dac~;
#X obj 348 696 r mvol;
#X obj 392 730 *~ 1;
#X obj 391 769 dac~;
#X obj 409 696 r mvol;
#X obj 558 711 *~ 1;
#X obj 557 750 dac~;
#X obj 575 677 r mvol;
#X obj 1426 66 vsl 15 128 0 1 0 0 empty empty empty 0 -9 0 10 -262144
-1 -1 0 1;
#X floatatom 1436 212 5 0 0 0 - - -;
#X obj 1426 246 s mvol;
#X connect 0 0 24 1;
#X connect 1 0 57 0;
#X connect 3 0 8 1;
#X connect 4 0 22 1;
#X connect 5 0 0 0;
#X connect 6 0 72 0;
#X connect 6 1 75 0;
#X connect 6 2 78 0;
#X connect 8 0 81 0;
#X connect 9 0 8 2;
#X connect 11 0 12 0;
#X connect 11 0 22 0;
#X connect 12 0 13 0;
#X connect 12 1 14 0;
#X connect 12 2 15 0;
#X connect 12 3 16 0;
#X connect 12 4 58 0;
#X connect 12 5 59 0;
#X connect 12 6 60 0;
#X connect 12 7 61 0;
#X connect 12 8 62 0;
#X connect 12 9 63 0;
#X connect 12 10 64 0;
#X connect 12 11 65 0;
#X connect 12 12 66 0;
#X connect 12 13 67 0;
#X connect 12 14 68 0;
#X connect 12 15 69 0;
#X connect 17 0 25 0;
#X connect 18 0 19 0;
#X connect 18 0 31 0;
#X connect 20 0 25 0;
#X connect 21 0 22 2;
#X connect 22 0 84 0;
#X connect 23 0 11 1;
#X connect 24 0 5 0;
#X connect 24 0 8 0;
#X connect 24 0 6 0;
#X connect 24 0 11 0;
#X connect 25 0 24 0;
#X connect 26 0 71 0;
#X connect 27 0 29 0;
#X connect 28 0 52 0;
#X connect 29 0 52 0;
#X connect 30 0 53 0;
#X connect 32 0 33 0;
#X connect 32 0 51 0;
#X connect 34 0 35 0;
#X connect 34 0 50 0;
#X connect 36 0 37 0;
#X connect 36 0 49 0;
#X connect 38 0 39 0;
#X connect 38 0 48 0;
#X connect 40 0 41 0;
#X connect 40 0 47 0;
#X connect 42 0 43 0;
#X connect 42 0 46 0;
#X connect 44 0 45 0;
#X connect 44 0 70 0;
#X connect 54 0 55 0;
#X connect 57 0 2 0;
#X connect 57 1 10 0;
#X connect 57 2 7 0;
#X connect 71 0 56 0;
#X connect 72 0 73 0;
#X connect 72 0 73 1;
#X connect 74 0 72 1;
#X connect 75 0 76 0;
#X connect 75 0 76 1;
#X connect 77 0 75 1;
#X connect 78 0 79 0;
#X connect 78 0 79 1;
#X connect 80 0 78 1;
#X connect 81 0 82 0;
#X connect 81 0 82 1;
#X connect 83 0 81 1;
#X connect 84 0 85 0;
#X connect 84 0 85 1;
#X connect 86 0 84 1;
#X connect 87 0 89 0;
#X connect 87 0 88 0;
